<?xml version="1.0" encoding="UTF-8"?><svg xmlns="http://www.w3.org/2000/svg" xmlns:xlink="http://www.w3.org/1999/xlink" contentScriptType="text/ecmascript" width="37.5" zoomAndPan="magnify" contentStyleType="text/css" viewBox="0 0 37.5 37.499999" height="37.499999" preserveAspectRatio="xMidYMid meet" version="1.0"><defs><clipPath id="clip-0"><path d="M 17 19 L 21 19 L 21 35.625 L 17 35.625 Z M 17 19 " clip-rule="nonzero"/></clipPath><clipPath id="clip-1"><path d="M 17 18 L 21 18 L 21 35.625 L 17 35.625 Z M 17 18 " clip-rule="nonzero"/></clipPath><clipPath id="clip-2"><path d="M 6 15 L 18 15 L 18 35.625 L 6 35.625 Z M 6 15 " clip-rule="nonzero"/></clipPath><clipPath id="clip-3"><path d="M 5 14 L 18 14 L 18 35.625 L 5 35.625 Z M 5 14 " clip-rule="nonzero"/></clipPath><clipPath id="clip-4"><path d="M 20 15 L 32 15 L 32 35.625 L 20 35.625 Z M 20 15 " clip-rule="nonzero"/></clipPath><clipPath id="clip-5"><path d="M 19 14 L 32 14 L 32 35.625 L 19 35.625 Z M 19 14 " clip-rule="nonzero"/></clipPath><clipPath id="clip-6"><path d="M 17 19 L 21 19 L 21 35.625 L 17 35.625 Z M 17 19 " clip-rule="nonzero"/></clipPath><clipPath id="clip-7"><path d="M 17 18 L 21 18 L 21 35.625 L 17 35.625 Z M 17 18 " clip-rule="nonzero"/></clipPath><clipPath id="clip-8"><path d="M 27 21 L 32.722656 21 L 32.722656 24 L 27 24 Z M 27 21 " clip-rule="nonzero"/></clipPath><clipPath id="clip-9"><path d="M 28 23 L 32.722656 23 L 32.722656 25 L 28 25 Z M 28 23 " clip-rule="nonzero"/></clipPath><clipPath id="clip-10"><path d="M 28 24 L 32.722656 24 L 32.722656 26 L 28 26 Z M 28 24 " clip-rule="nonzero"/></clipPath><clipPath id="clip-11"><path d="M 28 24 L 32.722656 24 L 32.722656 27 L 28 27 Z M 28 24 " clip-rule="nonzero"/></clipPath><clipPath id="clip-12"><path d="M 4.972656 24 L 10 24 L 10 27 L 4.972656 27 Z M 4.972656 24 " clip-rule="nonzero"/></clipPath></defs><path fill="rgb(100%, 64.709473%, 0%)" d="M 26.671875 11.9375 C 26.671875 16.402344 24.078125 21.230469 18.992188 21.230469 C 13.953125 21.230469 11.285156 16.402344 11.285156 11.9375 C 11.285156 7.472656 14.496094 3.855469 18.992188 3.855469 C 23.488281 3.855469 26.671875 7.472656 26.671875 11.9375 Z M 26.671875 11.9375 " fill-opacity="1" fill-rule="nonzero"/><path fill="rgb(100%, 100%, 100%)" d="M 18.992188 21.546875 C 13.78125 21.546875 10.96875 16.597656 10.96875 11.9375 C 10.96875 9.671875 11.769531 7.566406 13.21875 6.007812 C 14.707031 4.417969 16.753906 3.539062 18.992188 3.539062 C 23.550781 3.539062 26.988281 7.152344 26.988281 11.9375 C 26.988281 14.332031 26.261719 16.703125 24.996094 18.441406 C 23.519531 20.472656 21.441406 21.546875 18.992188 21.546875 Z M 18.992188 4.167969 C 14.777344 4.167969 11.601562 7.507812 11.601562 11.9375 C 11.601562 16.289062 14.191406 20.917969 18.992188 20.917969 C 23.824219 20.917969 26.355469 16.398438 26.355469 11.9375 C 26.355469 7.507812 23.191406 4.167969 18.992188 4.167969 Z M 18.992188 4.167969 " fill-opacity="1" fill-rule="nonzero"/><path fill="rgb(100%, 64.709473%, 0%)" d="M 26.535156 10.371094 C 21.761719 12.066406 16.933594 7.507812 16.933594 7.507812 C 16.792969 11.078125 12.753906 11.324219 12.753906 11.324219 L 12.824219 13.765625 L 11.722656 15.078125 C 11.722656 15.078125 9.265625 7.929688 15.796875 4.53125 C 15.796875 4.53125 21.371094 1.875 25.199219 7.070312 C 26.117188 8.3125 26.535156 10.371094 26.535156 10.371094 Z M 26.535156 10.371094 " fill-opacity="1" fill-rule="nonzero"/><path fill="rgb(100%, 100%, 100%)" d="M 11.722656 15.390625 C 11.703125 15.390625 11.683594 15.390625 11.664062 15.386719 C 11.554688 15.363281 11.460938 15.285156 11.421875 15.179688 C 11.398438 15.101562 10.789062 13.300781 10.996094 11.050781 C 11.1875 8.953125 12.148438 6.074219 15.652344 4.253906 C 15.722656 4.21875 17.171875 3.539062 19.125 3.539062 C 20.886719 3.539062 23.414062 4.117188 25.453125 6.882812 C 26.402344 8.167969 26.828125 10.222656 26.847656 10.308594 C 26.878906 10.460938 26.792969 10.613281 26.644531 10.667969 C 25.902344 10.929688 25.117188 11.0625 24.308594 11.0625 C 21.101562 11.0625 18.273438 9.03125 17.1875 8.140625 C 16.714844 10.824219 14 11.460938 13.078125 11.601562 L 13.140625 13.757812 C 13.144531 13.835938 13.117188 13.910156 13.066406 13.96875 L 11.964844 15.277344 C 11.90625 15.351562 11.816406 15.390625 11.722656 15.390625 Z M 19.125 4.167969 C 17.316406 4.167969 15.949219 4.808594 15.933594 4.816406 C 13.34375 6.164062 11.890625 8.273438 11.628906 11.085938 C 11.496094 12.488281 11.707031 13.726562 11.871094 14.414062 L 12.503906 13.65625 L 12.4375 11.332031 C 12.429688 11.164062 12.5625 11.019531 12.734375 11.011719 C 12.886719 11 16.488281 10.734375 16.617188 7.496094 C 16.621094 7.371094 16.699219 7.261719 16.816406 7.214844 C 16.929688 7.167969 17.0625 7.195312 17.152344 7.277344 C 17.1875 7.3125 20.542969 10.433594 24.308594 10.433594 C 24.949219 10.433594 25.570312 10.34375 26.164062 10.164062 C 26.019531 9.578125 25.617188 8.167969 24.945312 7.253906 C 23.433594 5.207031 21.476562 4.167969 19.125 4.167969 Z M 19.125 4.167969 " fill-opacity="1" fill-rule="nonzero"/><path fill="rgb(100%, 64.709473%, 0%)" d="M 8.71875 17.9375 L 8.71875 12.542969 C 8.71875 12.542969 16.332031 13.601562 18.839844 19.148438 L 18.839844 20.058594 L 8.71875 20.058594 Z M 8.71875 17.9375 " fill-opacity="1" fill-rule="nonzero"/><path fill="rgb(100%, 100%, 100%)" d="M 18.839844 20.371094 L 8.71875 20.371094 C 8.546875 20.371094 8.402344 20.230469 8.402344 20.058594 L 8.402344 12.542969 C 8.402344 12.449219 8.441406 12.363281 8.511719 12.304688 C 8.582031 12.246094 8.671875 12.21875 8.765625 12.230469 C 9.082031 12.273438 16.578125 13.378906 19.128906 19.019531 C 19.148438 19.058594 19.160156 19.101562 19.160156 19.148438 L 19.160156 20.058594 C 19.160156 20.230469 19.015625 20.371094 18.839844 20.371094 Z M 9.035156 19.746094 L 18.523438 19.746094 L 18.523438 19.214844 C 16.398438 14.617188 10.550781 13.207031 9.035156 12.917969 Z M 9.035156 19.746094 " fill-opacity="1" fill-rule="nonzero"/><path fill="rgb(100%, 64.709473%, 0%)" d="M 28.964844 17.9375 L 28.964844 12.542969 C 28.964844 12.542969 21.351562 13.601562 18.839844 19.148438 L 18.839844 20.058594 L 28.964844 20.058594 Z M 28.964844 17.9375 " fill-opacity="1" fill-rule="nonzero"/><path fill="rgb(100%, 100%, 100%)" d="M 28.964844 20.371094 L 18.839844 20.371094 C 18.667969 20.371094 18.523438 20.230469 18.523438 20.058594 L 18.523438 19.148438 C 18.523438 19.101562 18.535156 19.058594 18.554688 19.019531 C 21.105469 13.378906 28.601562 12.273438 28.917969 12.230469 C 29.011719 12.21875 29.101562 12.246094 29.171875 12.304688 C 29.238281 12.363281 29.28125 12.449219 29.28125 12.542969 L 29.28125 20.058594 C 29.28125 20.230469 29.136719 20.371094 28.964844 20.371094 Z M 19.160156 19.746094 L 28.644531 19.746094 L 28.644531 12.917969 C 27.132812 13.210938 21.28125 14.621094 19.160156 19.214844 Z M 19.160156 19.746094 " fill-opacity="1" fill-rule="nonzero"/><path fill="rgb(100%, 64.709473%, 0%)" d="M 7.691406 19.050781 L 7.691406 13.65625 C 7.691406 13.65625 16.058594 14.519531 18.820312 20.066406 L 18.820312 21.171875 L 7.691406 21.171875 Z M 7.691406 19.050781 " fill-opacity="1" fill-rule="nonzero"/><path fill="rgb(100%, 100%, 100%)" d="M 18.820312 21.488281 L 7.691406 21.488281 C 7.515625 21.488281 7.375 21.347656 7.375 21.171875 L 7.375 13.65625 C 7.375 13.566406 7.410156 13.480469 7.476562 13.421875 C 7.542969 13.363281 7.632812 13.335938 7.722656 13.34375 C 8.070312 13.378906 16.296875 14.289062 19.101562 19.925781 C 19.125 19.96875 19.136719 20.019531 19.136719 20.066406 L 19.136719 21.171875 C 19.136719 21.347656 18.992188 21.488281 18.820312 21.488281 Z M 8.007812 20.859375 L 18.503906 20.859375 L 18.503906 20.140625 C 16.140625 15.503906 9.59375 14.253906 8.007812 14.015625 Z M 8.007812 20.859375 " fill-opacity="1" fill-rule="nonzero"/><path fill="rgb(100%, 64.709473%, 0%)" d="M 29.949219 19.050781 L 29.949219 13.65625 C 29.949219 13.65625 21.578125 14.519531 18.820312 20.066406 L 18.820312 21.171875 L 29.949219 21.171875 Z M 29.949219 19.050781 " fill-opacity="1" fill-rule="nonzero"/><path fill="rgb(100%, 100%, 100%)" d="M 29.949219 21.488281 L 18.820312 21.488281 C 18.644531 21.488281 18.503906 21.347656 18.503906 21.171875 L 18.503906 20.066406 C 18.503906 20.015625 18.511719 19.96875 18.535156 19.925781 C 21.339844 14.289062 29.566406 13.378906 29.914062 13.34375 C 30.003906 13.335938 30.09375 13.363281 30.160156 13.421875 C 30.226562 13.480469 30.265625 13.566406 30.265625 13.65625 L 30.265625 21.171875 C 30.265625 21.347656 30.121094 21.488281 29.949219 21.488281 Z M 19.136719 20.859375 L 29.628906 20.859375 L 29.628906 14.015625 C 28.042969 14.253906 21.496094 15.503906 19.136719 20.140625 Z M 19.136719 20.859375 " fill-opacity="1" fill-rule="nonzero"/><g clip-path="url(#clip-0)"><path fill="rgb(100%, 64.709473%, 0%)" d="M 17.34375 19.148438 L 20.292969 19.148438 L 20.292969 35.308594 L 17.34375 35.308594 Z M 17.34375 19.148438 " fill-opacity="1" fill-rule="nonzero"/></g><g clip-path="url(#clip-1)"><path fill="rgb(100%, 100%, 100%)" d="M 20.292969 35.621094 L 17.34375 35.621094 C 17.167969 35.621094 17.027344 35.480469 17.027344 35.308594 L 17.027344 19.148438 C 17.027344 18.972656 17.167969 18.832031 17.34375 18.832031 L 20.292969 18.832031 C 20.46875 18.832031 20.609375 18.972656 20.609375 19.148438 L 20.609375 35.308594 C 20.609375 35.480469 20.46875 35.621094 20.292969 35.621094 Z M 17.660156 34.992188 L 19.976562 34.992188 L 19.976562 19.460938 L 17.660156 19.460938 Z M 17.660156 34.992188 " fill-opacity="1" fill-rule="nonzero"/></g><g clip-path="url(#clip-2)"><path fill="rgb(100%, 64.709473%, 0%)" d="M 6.210938 15.269531 L 17.34375 19.148438 L 17.34375 35.308594 L 6.210938 30.855469 Z M 6.210938 15.269531 " fill-opacity="1" fill-rule="nonzero"/></g><g clip-path="url(#clip-3)"><path fill="rgb(100%, 100%, 100%)" d="M 17.34375 35.621094 C 17.304688 35.621094 17.265625 35.613281 17.226562 35.597656 L 6.09375 31.148438 C 5.972656 31.101562 5.894531 30.984375 5.894531 30.855469 L 5.894531 15.269531 C 5.894531 15.167969 5.945312 15.070312 6.027344 15.011719 C 6.113281 14.953125 6.21875 14.9375 6.316406 14.972656 L 17.449219 18.851562 C 17.574219 18.894531 17.660156 19.015625 17.660156 19.148438 L 17.660156 35.308594 C 17.660156 35.410156 17.609375 35.507812 17.523438 35.566406 C 17.46875 35.601562 17.40625 35.621094 17.34375 35.621094 Z M 6.527344 30.644531 L 17.027344 34.839844 L 17.027344 19.371094 L 6.527344 15.710938 Z M 6.527344 30.644531 " fill-opacity="1" fill-rule="nonzero"/></g><g clip-path="url(#clip-4)"><path fill="rgb(100%, 64.709473%, 0%)" d="M 31.425781 17.101562 L 31.425781 15.269531 L 20.292969 19.148438 L 20.292969 35.308594 L 31.425781 30.855469 L 31.425781 19.148438 " fill-opacity="1" fill-rule="nonzero"/></g><g clip-path="url(#clip-5)"><path fill="rgb(100%, 100%, 100%)" d="M 20.292969 35.621094 C 20.230469 35.621094 20.167969 35.601562 20.117188 35.566406 C 20.027344 35.507812 19.976562 35.410156 19.976562 35.308594 L 19.976562 19.148438 C 19.976562 19.015625 20.0625 18.894531 20.1875 18.851562 L 31.320312 14.972656 C 31.417969 14.9375 31.527344 14.953125 31.609375 15.011719 C 31.695312 15.070312 31.742188 15.167969 31.742188 15.269531 L 31.742188 17.101562 C 31.742188 17.277344 31.601562 17.417969 31.425781 17.417969 C 31.25 17.417969 31.109375 17.277344 31.109375 17.101562 L 31.109375 15.710938 L 20.609375 19.371094 L 20.609375 34.839844 L 31.109375 30.644531 L 31.109375 19.148438 C 31.109375 18.972656 31.25 18.832031 31.425781 18.832031 C 31.601562 18.832031 31.742188 18.972656 31.742188 19.148438 L 31.742188 30.855469 C 31.742188 30.984375 31.664062 31.101562 31.542969 31.148438 L 20.410156 35.597656 C 20.371094 35.613281 20.332031 35.621094 20.292969 35.621094 Z M 20.292969 35.621094 " fill-opacity="1" fill-rule="nonzero"/></g><g clip-path="url(#clip-6)"><path fill="rgb(100%, 64.709473%, 0%)" d="M 17.34375 19.148438 L 20.292969 19.148438 L 20.292969 35.308594 L 17.34375 35.308594 Z M 17.34375 19.148438 " fill-opacity="1" fill-rule="nonzero"/></g><g clip-path="url(#clip-7)"><path fill="rgb(100%, 100%, 100%)" d="M 20.292969 35.621094 L 17.34375 35.621094 C 17.167969 35.621094 17.027344 35.480469 17.027344 35.308594 L 17.027344 19.148438 C 17.027344 18.972656 17.167969 18.832031 17.34375 18.832031 L 20.292969 18.832031 C 20.46875 18.832031 20.609375 18.972656 20.609375 19.148438 L 20.609375 35.308594 C 20.609375 35.480469 20.46875 35.621094 20.292969 35.621094 Z M 17.660156 34.992188 L 19.976562 34.992188 L 19.976562 19.460938 L 17.660156 19.460938 Z M 17.660156 34.992188 " fill-opacity="1" fill-rule="nonzero"/></g><path fill="rgb(100%, 64.709473%, 0%)" d="M 31.996094 22.875 C 31.996094 23.203125 31.730469 23.464844 31.402344 23.464844 L 28.75 23.464844 C 28.425781 23.464844 28.160156 23.203125 28.160156 22.875 C 28.160156 22.550781 28.425781 22.289062 28.75 22.289062 L 31.402344 22.289062 C 31.730469 22.289062 31.996094 22.550781 31.996094 22.875 Z M 31.996094 22.875 " fill-opacity="1" fill-rule="nonzero"/><g clip-path="url(#clip-8)"><path fill="rgb(100%, 100%, 100%)" d="M 31.402344 23.777344 L 28.75 23.777344 C 28.25 23.777344 27.84375 23.375 27.84375 22.875 C 27.84375 22.378906 28.25 21.976562 28.75 21.976562 L 31.402344 21.976562 C 31.902344 21.976562 32.3125 22.378906 32.3125 22.875 C 32.3125 23.375 31.902344 23.777344 31.402344 23.777344 Z M 28.75 22.605469 C 28.601562 22.605469 28.476562 22.726562 28.476562 22.875 C 28.476562 23.027344 28.601562 23.148438 28.75 23.148438 L 31.402344 23.148438 C 31.554688 23.148438 31.679688 23.027344 31.679688 22.875 C 31.679688 22.726562 31.554688 22.605469 31.402344 22.605469 Z M 28.75 22.605469 " fill-opacity="1" fill-rule="nonzero"/></g><g clip-path="url(#clip-9)"><path fill="rgb(100%, 64.709473%, 0%)" d="M 32.222656 24.050781 C 32.222656 24.375 31.957031 24.640625 31.628906 24.640625 L 28.980469 24.640625 C 28.652344 24.640625 28.386719 24.375 28.386719 24.050781 C 28.386719 23.726562 28.652344 23.464844 28.980469 23.464844 L 31.628906 23.464844 C 31.957031 23.464844 32.222656 23.726562 32.222656 24.050781 Z M 32.222656 24.050781 " fill-opacity="1" fill-rule="nonzero"/><path fill="rgb(100%, 100%, 100%)" d="M 31.628906 24.953125 L 28.980469 24.953125 C 28.476562 24.953125 28.070312 24.550781 28.070312 24.050781 C 28.070312 23.554688 28.476562 23.148438 28.980469 23.148438 L 31.628906 23.148438 C 32.132812 23.148438 32.539062 23.554688 32.539062 24.050781 C 32.539062 24.550781 32.132812 24.953125 31.628906 24.953125 Z M 28.980469 23.777344 C 28.828125 23.777344 28.703125 23.902344 28.703125 24.050781 C 28.703125 24.203125 28.828125 24.324219 28.980469 24.324219 L 31.628906 24.324219 C 31.78125 24.324219 31.90625 24.203125 31.90625 24.050781 C 31.90625 23.902344 31.78125 23.777344 31.628906 23.777344 Z M 28.980469 23.777344 " fill-opacity="1" fill-rule="nonzero"/></g><g clip-path="url(#clip-10)"><path fill="rgb(100%, 64.709473%, 0%)" d="M 32.386719 25.226562 C 32.386719 25.550781 32.121094 25.816406 31.796875 25.816406 L 29.144531 25.816406 C 28.816406 25.816406 28.550781 25.550781 28.550781 25.226562 C 28.550781 24.902344 28.816406 24.640625 29.144531 24.640625 L 31.796875 24.640625 C 32.121094 24.640625 32.386719 24.902344 32.386719 25.226562 Z M 32.386719 25.226562 " fill-opacity="1" fill-rule="nonzero"/></g><g clip-path="url(#clip-11)"><path fill="rgb(100%, 100%, 100%)" d="M 31.792969 26.128906 L 29.144531 26.128906 C 28.644531 26.128906 28.234375 25.722656 28.234375 25.226562 C 28.234375 24.730469 28.644531 24.324219 29.144531 24.324219 L 31.792969 24.324219 C 32.296875 24.324219 32.703125 24.730469 32.703125 25.226562 C 32.703125 25.722656 32.296875 26.128906 31.792969 26.128906 Z M 29.144531 24.953125 C 28.992188 24.953125 28.867188 25.078125 28.867188 25.226562 C 28.867188 25.378906 28.992188 25.5 29.144531 25.5 L 31.796875 25.5 C 31.945312 25.5 32.070312 25.378906 32.070312 25.226562 C 32.070312 25.078125 31.945312 24.953125 31.796875 24.953125 Z M 29.144531 24.953125 " fill-opacity="1" fill-rule="nonzero"/></g><path fill="rgb(100%, 64.709473%, 0%)" d="M 5.703125 22.875 C 5.703125 23.203125 5.96875 23.464844 6.292969 23.464844 L 8.945312 23.464844 C 9.273438 23.464844 9.539062 23.203125 9.539062 22.875 C 9.539062 22.550781 9.273438 22.289062 8.945312 22.289062 L 6.292969 22.289062 C 5.96875 22.289062 5.703125 22.550781 5.703125 22.875 Z M 5.703125 22.875 " fill-opacity="1" fill-rule="nonzero"/><path fill="rgb(100%, 100%, 100%)" d="M 8.945312 23.777344 L 6.292969 23.777344 C 5.792969 23.777344 5.386719 23.375 5.386719 22.875 C 5.386719 22.378906 5.792969 21.976562 6.292969 21.976562 L 8.945312 21.976562 C 9.445312 21.976562 9.855469 22.378906 9.855469 22.875 C 9.855469 23.375 9.445312 23.777344 8.945312 23.777344 Z M 6.292969 22.605469 C 6.144531 22.605469 6.019531 22.726562 6.019531 22.875 C 6.019531 23.027344 6.144531 23.148438 6.292969 23.148438 L 8.945312 23.148438 C 9.097656 23.148438 9.222656 23.027344 9.222656 22.875 C 9.222656 22.726562 9.097656 22.605469 8.945312 22.605469 Z M 6.292969 22.605469 " fill-opacity="1" fill-rule="nonzero"/><path fill="rgb(100%, 64.709473%, 0%)" d="M 5.476562 24.050781 C 5.476562 24.375 5.742188 24.640625 6.066406 24.640625 L 8.71875 24.640625 C 9.046875 24.640625 9.308594 24.375 9.308594 24.050781 C 9.308594 23.726562 9.046875 23.464844 8.71875 23.464844 L 6.066406 23.464844 C 5.742188 23.464844 5.476562 23.726562 5.476562 24.050781 Z M 5.476562 24.050781 " fill-opacity="1" fill-rule="nonzero"/><path fill="rgb(100%, 100%, 100%)" d="M 8.71875 24.953125 L 6.066406 24.953125 C 5.566406 24.953125 5.160156 24.550781 5.160156 24.050781 C 5.160156 23.554688 5.566406 23.148438 6.066406 23.148438 L 8.71875 23.148438 C 9.21875 23.148438 9.625 23.554688 9.625 24.050781 C 9.625 24.550781 9.21875 24.953125 8.71875 24.953125 Z M 6.066406 23.777344 C 5.914062 23.777344 5.792969 23.902344 5.792969 24.050781 C 5.792969 24.203125 5.914062 24.324219 6.066406 24.324219 L 8.71875 24.324219 C 8.871094 24.324219 8.992188 24.203125 8.992188 24.050781 C 8.992188 23.902344 8.871094 23.777344 8.71875 23.777344 Z M 6.066406 23.777344 " fill-opacity="1" fill-rule="nonzero"/><path fill="rgb(100%, 64.709473%, 0%)" d="M 5.3125 25.226562 C 5.3125 25.550781 5.574219 25.816406 5.902344 25.816406 L 8.554688 25.816406 C 8.878906 25.816406 9.144531 25.550781 9.144531 25.226562 C 9.144531 24.902344 8.878906 24.640625 8.554688 24.640625 L 5.902344 24.640625 C 5.574219 24.640625 5.3125 24.902344 5.3125 25.226562 Z M 5.3125 25.226562 " fill-opacity="1" fill-rule="nonzero"/><g clip-path="url(#clip-12)"><path fill="rgb(100%, 100%, 100%)" d="M 8.554688 26.128906 L 5.902344 26.128906 C 5.402344 26.128906 4.996094 25.722656 4.996094 25.226562 C 4.996094 24.730469 5.402344 24.324219 5.902344 24.324219 L 8.554688 24.324219 C 9.054688 24.324219 9.460938 24.730469 9.460938 25.226562 C 9.460938 25.722656 9.054688 26.128906 8.554688 26.128906 Z M 5.902344 24.953125 C 5.75 24.953125 5.628906 25.078125 5.628906 25.226562 C 5.628906 25.378906 5.75 25.5 5.902344 25.5 L 8.554688 25.5 C 8.707031 25.5 8.828125 25.378906 8.828125 25.226562 C 8.828125 25.078125 8.707031 24.953125 8.554688 24.953125 Z M 5.902344 24.953125 " fill-opacity="1" fill-rule="nonzero"/></g></svg>