<?xml version="1.0" encoding="UTF-8"?><svg xmlns="http://www.w3.org/2000/svg" xmlns:xlink="http://www.w3.org/1999/xlink" contentScriptType="text/ecmascript" width="37.5" zoomAndPan="magnify" contentStyleType="text/css" viewBox="0 0 37.5 37.499999" height="37.499999" preserveAspectRatio="xMidYMid meet" version="1.0"><path fill="rgb(100%, 64.709473%, 0%)" d="M 11.078125 5.730469 C 10.753906 5.730469 10.441406 5.792969 10.144531 5.917969 C 9.84375 6.042969 9.582031 6.21875 9.351562 6.449219 C 9.121094 6.675781 8.945312 6.941406 8.824219 7.242188 C 8.699219 7.539062 8.636719 7.851562 8.636719 8.175781 L 8.636719 8.992188 C 8.636719 9.316406 8.699219 9.625 8.824219 9.925781 C 8.945312 10.226562 9.121094 10.488281 9.351562 10.71875 C 9.582031 10.949219 9.84375 11.125 10.144531 11.25 C 10.441406 11.371094 10.753906 11.433594 11.078125 11.433594 C 11.402344 11.433594 11.710938 11.371094 12.011719 11.25 C 12.308594 11.125 12.574219 10.949219 12.804688 10.71875 C 13.03125 10.488281 13.207031 10.226562 13.332031 9.925781 C 13.457031 9.625 13.519531 9.316406 13.519531 8.992188 L 13.519531 8.175781 C 13.519531 7.851562 13.457031 7.539062 13.332031 7.242188 C 13.207031 6.941406 13.03125 6.675781 12.804688 6.449219 C 12.574219 6.21875 12.308594 6.042969 12.011719 5.917969 C 11.710938 5.792969 11.402344 5.730469 11.078125 5.730469 Z M 8.550781 16.933594 C 8.5625 16.839844 8.429688 16.800781 8.394531 16.886719 L 6.617188 21.039062 C 6.492188 21.335938 6.289062 21.578125 6.019531 21.757812 C 5.746094 21.933594 5.449219 22.023438 5.121094 22.023438 L 4.371094 22.023438 C 4.304688 22.023438 4.238281 22.007812 4.179688 21.976562 C 4.117188 21.945312 4.070312 21.898438 4.03125 21.84375 C 3.996094 21.785156 3.972656 21.722656 3.964844 21.652344 C 3.960938 21.585938 3.972656 21.519531 3.996094 21.457031 L 6.195312 16.324219 L 7.003906 14.296875 C 7.25 13.679688 7.652344 13.183594 8.203125 12.808594 C 8.753906 12.4375 9.359375 12.25 10.027344 12.25 L 12.128906 12.25 C 12.792969 12.25 13.402344 12.4375 13.953125 12.808594 C 14.503906 13.183594 14.902344 13.679688 15.148438 14.296875 L 15.957031 16.324219 L 18.15625 21.457031 C 18.183594 21.519531 18.195312 21.585938 18.1875 21.652344 C 18.179688 21.722656 18.160156 21.785156 18.121094 21.84375 C 18.085938 21.898438 18.035156 21.945312 17.976562 21.976562 C 17.914062 22.007812 17.851562 22.023438 17.78125 22.023438 L 17.03125 22.023438 C 16.707031 22.023438 16.40625 21.933594 16.136719 21.753906 C 15.863281 21.578125 15.664062 21.335938 15.535156 21.039062 L 13.761719 16.886719 C 13.722656 16.800781 13.59375 16.839844 13.605469 16.933594 L 14.332031 22.023438 L 15.109375 31.359375 C 15.117188 31.476562 15.082031 31.582031 15.003906 31.667969 C 14.921875 31.757812 14.820312 31.800781 14.703125 31.800781 L 14.082031 31.800781 C 13.890625 31.800781 13.703125 31.765625 13.523438 31.699219 C 13.339844 31.632812 13.175781 31.539062 13.03125 31.414062 C 12.882812 31.289062 12.761719 31.144531 12.667969 30.976562 C 12.574219 30.808594 12.507812 30.628906 12.476562 30.4375 L 11.160156 22.507812 C 11.144531 22.414062 11.011719 22.414062 10.996094 22.507812 L 9.679688 30.4375 C 9.644531 30.628906 9.582031 30.808594 9.488281 30.976562 C 9.390625 31.144531 9.269531 31.289062 9.125 31.414062 C 8.976562 31.539062 8.8125 31.636719 8.632812 31.699219 C 8.453125 31.765625 8.265625 31.800781 8.070312 31.800781 L 7.453125 31.800781 C 7.332031 31.800781 7.234375 31.757812 7.152344 31.667969 C 7.070312 31.582031 7.035156 31.476562 7.046875 31.359375 L 7.824219 22.023438 Z M 26.453125 5.730469 C 26.128906 5.730469 25.820312 5.792969 25.519531 5.917969 C 25.21875 6.042969 24.957031 6.21875 24.726562 6.449219 C 24.5 6.675781 24.324219 6.941406 24.199219 7.242188 C 24.074219 7.539062 24.011719 7.851562 24.011719 8.175781 L 24.011719 8.992188 C 24.011719 9.316406 24.074219 9.625 24.199219 9.925781 C 24.324219 10.226562 24.5 10.488281 24.726562 10.71875 C 24.957031 10.949219 25.21875 11.125 25.519531 11.25 C 25.820312 11.371094 26.128906 11.433594 26.453125 11.433594 C 26.777344 11.433594 27.089844 11.371094 27.386719 11.25 C 27.6875 11.125 27.949219 10.949219 28.179688 10.71875 C 28.40625 10.488281 28.585938 10.226562 28.707031 9.925781 C 28.832031 9.625 28.894531 9.316406 28.894531 8.992188 L 28.894531 8.175781 C 28.894531 7.851562 28.832031 7.539062 28.707031 7.242188 C 28.585938 6.941406 28.40625 6.675781 28.179688 6.449219 C 27.949219 6.21875 27.6875 6.042969 27.386719 5.917969 C 27.089844 5.792969 26.777344 5.730469 26.453125 5.730469 Z M 23.925781 16.933594 C 23.941406 16.839844 23.808594 16.800781 23.769531 16.886719 L 21.996094 21.039062 C 21.867188 21.335938 21.667969 21.578125 21.394531 21.757812 C 21.121094 21.933594 20.824219 22.023438 20.5 22.023438 L 19.75 22.023438 C 19.679688 22.023438 19.617188 22.007812 19.554688 21.976562 C 19.496094 21.945312 19.445312 21.898438 19.410156 21.84375 C 19.371094 21.785156 19.347656 21.722656 19.34375 21.652344 C 19.335938 21.585938 19.347656 21.519531 19.375 21.457031 L 21.570312 16.324219 L 22.378906 14.296875 C 22.628906 13.679688 23.027344 13.183594 23.578125 12.808594 C 24.128906 12.4375 24.738281 12.25 25.402344 12.25 L 27.503906 12.25 C 28.171875 12.25 28.777344 12.4375 29.328125 12.808594 C 29.878906 13.183594 30.277344 13.679688 30.527344 14.296875 L 31.335938 16.324219 L 33.53125 21.457031 C 33.558594 21.519531 33.570312 21.585938 33.5625 21.652344 C 33.558594 21.722656 33.535156 21.785156 33.496094 21.84375 C 33.460938 21.898438 33.410156 21.945312 33.351562 21.976562 C 33.289062 22.007812 33.226562 22.023438 33.15625 22.023438 L 32.40625 22.023438 C 32.082031 22.023438 31.785156 21.933594 31.511719 21.753906 C 31.242188 21.578125 31.039062 21.335938 30.914062 21.039062 L 29.136719 16.886719 C 29.097656 16.800781 28.96875 16.839844 28.980469 16.933594 L 29.707031 22.023438 L 30.484375 31.359375 C 30.496094 31.476562 30.460938 31.582031 30.378906 31.667969 C 30.296875 31.757812 30.199219 31.800781 30.078125 31.800781 L 29.457031 31.800781 C 29.265625 31.800781 29.078125 31.765625 28.898438 31.699219 C 28.71875 31.632812 28.554688 31.539062 28.40625 31.414062 C 28.261719 31.289062 28.140625 31.144531 28.042969 30.976562 C 27.949219 30.808594 27.886719 30.628906 27.855469 30.4375 L 26.535156 22.507812 C 26.519531 22.414062 26.390625 22.414062 26.375 22.507812 L 25.054688 30.4375 C 25.023438 30.628906 24.960938 30.808594 24.863281 30.976562 C 24.769531 31.144531 24.648438 31.289062 24.5 31.414062 C 24.351562 31.539062 24.191406 31.636719 24.007812 31.699219 C 23.828125 31.765625 23.640625 31.800781 23.449219 31.800781 L 22.828125 31.800781 C 22.707031 31.800781 22.609375 31.757812 22.527344 31.667969 C 22.449219 31.582031 22.414062 31.476562 22.421875 31.359375 L 23.199219 22.023438 Z M 23.925781 16.933594 " fill-opacity="1" fill-rule="nonzero"/></svg>