<?xml version="1.0" encoding="UTF-8"?><svg xmlns="http://www.w3.org/2000/svg" xmlns:xlink="http://www.w3.org/1999/xlink" contentScriptType="text/ecmascript" width="37.5" zoomAndPan="magnify" contentStyleType="text/css" viewBox="0 0 37.5 37.499999" height="37.499999" preserveAspectRatio="xMidYMid meet" version="1.0"><defs><clipPath id="clip-0"><path d="M 0 0 L 37.007812 0 L 37.007812 37.007812 L 0 37.007812 Z M 0 0 " clip-rule="nonzero"/></clipPath><clipPath id="clip-1"><path d="M 7 2 L 30.835938 2 L 30.835938 33 L 7 33 Z M 7 2 " clip-rule="nonzero"/></clipPath><clipPath id="clip-2"><path d="M 7 32 L 30 32 L 30 35.625 L 7 35.625 Z M 7 32 " clip-rule="nonzero"/></clipPath><clipPath id="clip-3"><path d="M 6.835938 1.875 L 30.835938 1.875 L 30.835938 34 L 6.835938 34 Z M 6.835938 1.875 " clip-rule="nonzero"/></clipPath><clipPath id="clip-4"><path d="M 6.835938 32 L 30.835938 32 L 30.835938 35.625 L 6.835938 35.625 Z M 6.835938 32 " clip-rule="nonzero"/></clipPath><clipPath id="clip-5"><path d="M 6.835938 35 L 30.835938 35 L 30.835938 35.625 L 6.835938 35.625 Z M 6.835938 35 " clip-rule="nonzero"/></clipPath><clipPath id="clip-6"><path d="M 9 1.875 L 10 1.875 L 10 34 L 9 34 Z M 9 1.875 " clip-rule="nonzero"/></clipPath></defs><g clip-path="url(#clip-0)"><path fill="rgb(100%, 100%, 100%)" d="M 0 0 L 37.5 0 L 37.5 45 L 0 45 Z M 0 0 " fill-opacity="1" fill-rule="nonzero"/><path fill="rgb(100%, 100%, 100%)" d="M 0 0 L 37.5 0 L 37.5 37.5 L 0 37.5 Z M 0 0 " fill-opacity="1" fill-rule="nonzero"/><path fill="rgb(100%, 100%, 100%)" d="M 0 0 L 37.5 0 L 37.5 37.5 L 0 37.5 Z M 0 0 " fill-opacity="1" fill-rule="nonzero"/></g><g clip-path="url(#clip-1)"><path fill="rgb(97.648621%, 58.039856%, 23.139954%)" d="M 7.097656 32.773438 L 30.574219 32.773438 L 30.574219 2.167969 L 7.097656 2.167969 Z M 7.097656 32.773438 " fill-opacity="1" fill-rule="nonzero"/></g><g clip-path="url(#clip-2)"><path fill="rgb(94.898987%, 94.898987%, 94.509888%)" d="M 7.097656 35.332031 L 29.929688 35.332031 L 29.929688 32.773438 L 7.097656 32.773438 Z M 7.097656 35.332031 " fill-opacity="1" fill-rule="nonzero"/></g><path fill="rgb(92.549133%, 69.799805%, 28.239441%)" d="M 14.0625 10.105469 L 25.671875 10.105469 L 25.671875 7.800781 L 14.0625 7.800781 Z M 14.0625 10.105469 " fill-opacity="1" fill-rule="nonzero"/><g clip-path="url(#clip-3)"><path fill="rgb(12.548828%, 10.978699%, 10.978699%)" d="M 30.574219 32.515625 L 7.097656 32.515625 L 7.355469 32.773438 L 7.355469 2.167969 C 7.269531 2.253906 7.183594 2.339844 7.097656 2.425781 L 30.574219 2.425781 L 30.3125 2.167969 L 30.3125 32.773438 C 30.3125 33.105469 30.835938 33.105469 30.835938 32.773438 L 30.835938 2.167969 C 30.835938 2.027344 30.714844 1.90625 30.574219 1.90625 L 9.792969 1.90625 C 8.894531 1.90625 7.996094 1.90625 7.097656 1.90625 C 6.953125 1.90625 6.835938 2.027344 6.835938 2.167969 L 6.835938 32.773438 C 6.835938 32.914062 6.953125 33.03125 7.097656 33.03125 L 30.574219 33.03125 C 30.910156 33.03125 30.910156 32.515625 30.574219 32.515625 " fill-opacity="1" fill-rule="nonzero"/></g><g clip-path="url(#clip-4)"><path fill="rgb(12.548828%, 10.978699%, 10.978699%)" d="M 29.929688 35.074219 L 7.097656 35.074219 L 7.355469 35.332031 L 7.355469 32.773438 L 7.097656 33.03125 L 29.929688 33.03125 L 29.667969 32.773438 L 29.667969 35.332031 C 29.667969 35.667969 30.191406 35.667969 30.191406 35.332031 L 30.191406 32.773438 C 30.191406 32.632812 30.070312 32.515625 29.929688 32.515625 L 7.097656 32.515625 C 6.953125 32.515625 6.835938 32.632812 6.835938 32.773438 L 6.835938 35.332031 C 6.835938 35.476562 6.953125 35.59375 7.097656 35.59375 L 29.929688 35.59375 C 30.265625 35.59375 30.265625 35.074219 29.929688 35.074219 " fill-opacity="1" fill-rule="nonzero"/></g><g clip-path="url(#clip-5)"><path fill="rgb(12.548828%, 10.978699%, 10.978699%)" d="M 7.097656 35.59375 L 30.574219 35.59375 C 30.910156 35.59375 30.910156 35.074219 30.574219 35.074219 L 7.097656 35.074219 C 6.761719 35.074219 6.761719 35.59375 7.097656 35.59375 " fill-opacity="1" fill-rule="nonzero"/></g><g clip-path="url(#clip-6)"><path fill="rgb(12.548828%, 10.978699%, 10.978699%)" d="M 9.113281 2.167969 L 9.113281 32.773438 C 9.113281 33.105469 9.636719 33.105469 9.636719 32.773438 L 9.636719 2.167969 C 9.636719 1.832031 9.113281 1.832031 9.113281 2.167969 " fill-opacity="1" fill-rule="nonzero"/></g><path fill="rgb(12.548828%, 10.978699%, 10.978699%)" d="M 25.671875 9.847656 L 14.0625 9.847656 L 14.324219 10.105469 L 14.324219 7.800781 L 14.0625 8.058594 L 25.671875 8.058594 L 25.410156 7.800781 L 25.410156 10.105469 C 25.410156 10.441406 25.933594 10.441406 25.933594 10.105469 L 25.933594 7.800781 C 25.933594 7.660156 25.816406 7.542969 25.671875 7.542969 L 14.0625 7.542969 C 13.921875 7.542969 13.800781 7.660156 13.800781 7.800781 L 13.800781 10.105469 C 13.800781 10.246094 13.921875 10.363281 14.0625 10.363281 L 25.671875 10.363281 C 26.007812 10.363281 26.007812 9.847656 25.671875 9.847656 " fill-opacity="1" fill-rule="nonzero"/></svg>