<svg xmlns="http://www.w3.org/2000/svg" xmlns:xlink="http://www.w3.org/1999/xlink" width="375" viewBox="0 0 375 375" height="375" version="1.0"><defs><clipPath id="a"><path d="M 220 203 L 239 203 L 239 219.703125 L 220 219.703125 Z M 220 203"/></clipPath><clipPath id="b"><path d="M 238.890625 203.472656 L 238.890625 217.757812 C 238.886719 218.121094 238.785156 218.457031 238.582031 218.757812 C 238.375 219.0625 238.105469 219.285156 237.769531 219.425781 C 237.429688 219.566406 237.082031 219.605469 236.722656 219.535156 C 236.363281 219.46875 236.050781 219.308594 235.785156 219.054688 L 220.675781 204.03125"/></clipPath><clipPath id="d"><path d="M 179 158 L 249.710938 158 L 249.710938 212 L 179 212 Z M 179 158"/></clipPath><clipPath id="e"><path d="M 234.980469 211.511719 L 194.453125 211.511719 C 193.492188 211.511719 192.539062 211.417969 191.597656 211.230469 C 190.652344 211.046875 189.738281 210.769531 188.847656 210.402344 C 187.960938 210.035156 187.117188 209.585938 186.316406 209.054688 C 185.515625 208.519531 184.777344 207.917969 184.097656 207.238281 C 183.417969 206.5625 182.808594 205.824219 182.273438 205.027344 C 181.742188 204.230469 181.289062 203.390625 180.921875 202.503906 C 180.554688 201.621094 180.277344 200.707031 180.089844 199.765625 C 179.898438 198.828125 179.804688 197.878906 179.804688 196.921875 L 179.804688 172.589844 C 179.804688 171.632812 179.898438 170.683594 180.089844 169.746094 C 180.277344 168.804688 180.554688 167.890625 180.921875 167.007812 C 181.289062 166.121094 181.742188 165.28125 182.273438 164.484375 C 182.808594 163.6875 183.417969 162.949219 184.097656 162.273438 C 184.777344 161.59375 185.515625 160.992188 186.316406 160.457031 C 187.117188 159.925781 187.960938 159.476562 188.847656 159.109375 C 189.738281 158.742188 190.652344 158.464844 191.597656 158.28125 C 192.539062 158.09375 193.492188 158 194.453125 158 L 234.980469 158 C 235.941406 158 236.894531 158.09375 237.835938 158.28125 C 238.78125 158.464844 239.695312 158.742188 240.585938 159.109375 C 241.472656 159.476562 242.316406 159.925781 243.117188 160.457031 C 243.917969 160.992188 244.65625 161.59375 245.335938 162.273438 C 246.015625 162.949219 246.625 163.6875 247.15625 164.484375 C 247.691406 165.28125 248.144531 166.121094 248.511719 167.007812 C 248.878906 167.890625 249.15625 168.804688 249.34375 169.746094 C 249.53125 170.683594 249.625 171.632812 249.625 172.589844 L 249.625 196.921875 C 249.625 197.878906 249.53125 198.828125 249.34375 199.765625 C 249.15625 200.707031 248.878906 201.621094 248.511719 202.503906 C 248.144531 203.390625 247.691406 204.230469 247.15625 205.027344 C 246.625 205.824219 246.015625 206.5625 245.335938 207.238281 C 244.65625 207.917969 243.917969 208.519531 243.117188 209.054688 C 242.316406 209.585938 241.472656 210.035156 240.585938 210.402344 C 239.695312 210.769531 238.78125 211.046875 237.835938 211.230469 C 236.894531 211.417969 235.941406 211.511719 234.980469 211.511719 Z M 234.980469 211.511719"/></clipPath><clipPath id="g"><path d="M 137 171 L 170 171 L 170 200 L 137 200 Z M 137 171"/></clipPath><clipPath id="h"><path d="M 137.914062 171.785156 L 137.914062 196.519531 C 137.890625 196.84375 137.917969 197.160156 137.996094 197.476562 C 138.074219 197.789062 138.195312 198.085938 138.367188 198.359375 C 138.539062 198.636719 138.746094 198.878906 138.992188 199.089844 C 139.242188 199.300781 139.515625 199.46875 139.816406 199.59375 C 140.113281 199.71875 140.425781 199.792969 140.75 199.820312 C 141.074219 199.847656 141.394531 199.824219 141.710938 199.75 C 142.027344 199.675781 142.328125 199.558594 142.605469 199.390625 C 142.882812 199.222656 143.132812 199.019531 143.34375 198.777344 L 169.535156 172.714844"/></clipPath><clipPath id="j"><path d="M 119.210938 93 L 241 93 L 241 186 L 119.210938 186 Z M 119.210938 93"/></clipPath><clipPath id="k"><path d="M 144.648438 93.046875 L 214.964844 93.046875 C 215.796875 93.046875 216.625 93.089844 217.449219 93.167969 C 218.277344 93.25 219.097656 93.371094 219.910156 93.53125 C 220.726562 93.695312 221.53125 93.894531 222.324219 94.136719 C 223.117188 94.375 223.898438 94.652344 224.667969 94.96875 C 225.433594 95.285156 226.183594 95.640625 226.914062 96.03125 C 227.648438 96.417969 228.359375 96.84375 229.050781 97.304688 C 229.738281 97.761719 230.40625 98.253906 231.046875 98.78125 C 231.691406 99.304688 232.304688 99.859375 232.890625 100.445312 C 233.480469 101.03125 234.035156 101.640625 234.5625 102.28125 C 235.089844 102.921875 235.582031 103.585938 236.042969 104.273438 C 236.503906 104.960938 236.933594 105.667969 237.324219 106.398438 C 237.714844 107.128906 238.070312 107.875 238.386719 108.640625 C 238.707031 109.402344 238.984375 110.179688 239.226562 110.972656 C 239.464844 111.765625 239.667969 112.566406 239.828125 113.378906 C 239.992188 114.1875 240.113281 115.007812 240.195312 115.828125 C 240.277344 116.652344 240.316406 117.476562 240.316406 118.304688 L 240.316406 160.535156 C 240.316406 161.359375 240.277344 162.1875 240.195312 163.007812 C 240.113281 163.832031 239.992188 164.648438 239.828125 165.460938 C 239.667969 166.273438 239.464844 167.074219 239.226562 167.867188 C 238.984375 168.65625 238.707031 169.433594 238.386719 170.199219 C 238.070312 170.964844 237.714844 171.710938 237.324219 172.441406 C 236.933594 173.167969 236.503906 173.878906 236.042969 174.566406 C 235.582031 175.253906 235.089844 175.917969 234.5625 176.558594 C 234.035156 177.195312 233.480469 177.808594 232.890625 178.394531 C 232.304688 178.980469 231.691406 179.535156 231.046875 180.058594 C 230.40625 180.582031 229.738281 181.074219 229.050781 181.535156 C 228.359375 181.996094 227.648438 182.417969 226.914062 182.808594 C 226.183594 183.199219 225.433594 183.550781 224.667969 183.867188 C 223.898438 184.183594 223.117188 184.464844 222.324219 184.703125 C 221.53125 184.945312 220.726562 185.144531 219.910156 185.304688 C 219.097656 185.46875 218.277344 185.589844 217.449219 185.667969 C 216.625 185.75 215.796875 185.792969 214.964844 185.792969 L 144.648438 185.792969 C 143.816406 185.792969 142.988281 185.75 142.164062 185.667969 C 141.335938 185.589844 140.515625 185.46875 139.703125 185.304688 C 138.886719 185.144531 138.082031 184.945312 137.289062 184.703125 C 136.496094 184.464844 135.714844 184.183594 134.945312 183.867188 C 134.179688 183.550781 133.429688 183.199219 132.695312 182.808594 C 131.964844 182.417969 131.253906 181.996094 130.5625 181.535156 C 129.871094 181.074219 129.207031 180.582031 128.566406 180.058594 C 127.921875 179.535156 127.308594 178.980469 126.722656 178.394531 C 126.132812 177.808594 125.578125 177.195312 125.050781 176.558594 C 124.523438 175.917969 124.03125 175.253906 123.570312 174.566406 C 123.105469 173.878906 122.679688 173.167969 122.289062 172.441406 C 121.898438 171.710938 121.542969 170.964844 121.226562 170.199219 C 120.90625 169.433594 120.628906 168.65625 120.386719 167.867188 C 120.148438 167.074219 119.945312 166.273438 119.78125 165.460938 C 119.621094 164.648438 119.5 163.832031 119.417969 163.007812 C 119.335938 162.1875 119.296875 161.359375 119.296875 160.535156 L 119.296875 118.304688 C 119.296875 117.476562 119.335938 116.652344 119.417969 115.828125 C 119.5 115.003906 119.621094 114.1875 119.78125 113.378906 C 119.945312 112.566406 120.148438 111.765625 120.386719 110.972656 C 120.628906 110.179688 120.90625 109.402344 121.226562 108.640625 C 121.542969 107.875 121.898438 107.128906 122.289062 106.398438 C 122.679688 105.667969 123.105469 104.960938 123.570312 104.273438 C 124.03125 103.585938 124.523438 102.921875 125.050781 102.28125 C 125.578125 101.640625 126.132812 101.03125 126.722656 100.445312 C 127.308594 99.859375 127.921875 99.304688 128.566406 98.78125 C 129.207031 98.253906 129.871094 97.761719 130.5625 97.304688 C 131.253906 96.84375 131.964844 96.417969 132.695312 96.03125 C 133.429688 95.640625 134.179688 95.285156 134.945312 94.96875 C 135.714844 94.652344 136.496094 94.375 137.289062 94.136719 C 138.082031 93.894531 138.886719 93.695312 139.703125 93.53125 C 140.515625 93.371094 141.335938 93.25 142.164062 93.167969 C 142.988281 93.089844 143.816406 93.046875 144.648438 93.046875 Z M 144.648438 93.046875"/></clipPath><clipPath id="m"><path d="M 179 157 L 241 157 L 241 186 L 179 186 Z M 179 157"/></clipPath><clipPath id="n"><path d="M 240.316406 159.019531 C 238.605469 158.332031 236.824219 157.980469 234.980469 157.96875 L 194.453125 157.96875 C 193.492188 157.96875 192.539062 158.0625 191.597656 158.25 C 190.652344 158.433594 189.738281 158.710938 188.847656 159.078125 C 187.960938 159.445312 187.117188 159.894531 186.316406 160.425781 C 185.515625 160.960938 184.777344 161.566406 184.097656 162.242188 C 183.417969 162.917969 182.808594 163.65625 182.273438 164.453125 C 181.742188 165.25 181.289062 166.089844 180.921875 166.976562 C 180.554688 167.859375 180.277344 168.773438 180.089844 169.714844 C 179.898438 170.652344 179.804688 171.601562 179.804688 172.558594 L 179.804688 185.792969 L 214.964844 185.792969 C 215.796875 185.792969 216.625 185.75 217.449219 185.667969 C 218.277344 185.589844 219.097656 185.46875 219.910156 185.304688 C 220.726562 185.144531 221.53125 184.945312 222.324219 184.703125 C 223.117188 184.464844 223.898438 184.183594 224.667969 183.867188 C 225.433594 183.550781 226.183594 183.199219 226.914062 182.808594 C 227.648438 182.417969 228.359375 181.996094 229.050781 181.535156 C 229.738281 181.074219 230.40625 180.582031 231.046875 180.058594 C 231.691406 179.535156 232.304688 178.980469 232.890625 178.394531 C 233.480469 177.808594 234.035156 177.195312 234.5625 176.558594 C 235.089844 175.917969 235.582031 175.253906 236.042969 174.566406 C 236.503906 173.878906 236.933594 173.167969 237.324219 172.441406 C 237.714844 171.710938 238.070312 170.964844 238.386719 170.199219 C 238.707031 169.433594 238.984375 168.65625 239.226562 167.867188 C 239.464844 167.074219 239.667969 166.273438 239.828125 165.460938 C 239.992188 164.648438 240.113281 163.832031 240.195312 163.007812 C 240.277344 162.1875 240.316406 161.359375 240.316406 160.535156 Z M 240.316406 159.019531"/></clipPath><clipPath id="p"><path d="M 152 111 L 208 111 L 208 168 L 152 168 Z M 152 111"/></clipPath><clipPath id="q"><path d="M 205.4375 111.597656 L 201.3125 111.597656 C 200.605469 111.597656 199.902344 111.628906 199.203125 111.699219 C 198.503906 111.769531 197.804688 111.871094 197.117188 112.007812 C 196.425781 112.144531 195.742188 112.316406 195.070312 112.519531 C 194.394531 112.722656 193.730469 112.957031 193.082031 113.226562 C 192.429688 113.496094 191.796875 113.796875 191.175781 114.125 C 190.554688 114.457031 189.949219 114.816406 189.363281 115.207031 C 188.777344 115.597656 188.214844 116.015625 187.667969 116.460938 C 187.125 116.90625 186.601562 117.375 186.105469 117.871094 C 185.605469 118.367188 185.132812 118.886719 184.6875 119.429688 C 184.242188 119.972656 183.820312 120.535156 183.429688 121.117188 C 183.039062 121.699219 182.679688 122.300781 182.347656 122.921875 C 182.015625 123.539062 181.714844 124.171875 181.445312 124.820312 C 181.175781 125.46875 180.9375 126.128906 180.734375 126.800781 C 180.527344 127.472656 180.355469 128.152344 180.21875 128.839844 C 180.082031 129.527344 179.980469 130.222656 179.910156 130.921875 C 179.839844 131.617188 179.804688 132.320312 179.804688 133.019531 C 179.804688 132.320312 179.773438 131.617188 179.703125 130.921875 C 179.632812 130.222656 179.53125 129.527344 179.394531 128.839844 C 179.257812 128.152344 179.085938 127.472656 178.878906 126.800781 C 178.675781 126.128906 178.4375 125.46875 178.167969 124.820312 C 177.898438 124.171875 177.597656 123.539062 177.265625 122.921875 C 176.933594 122.300781 176.574219 121.699219 176.183594 121.117188 C 175.792969 120.535156 175.371094 119.972656 174.925781 119.429688 C 174.476562 118.886719 174.007812 118.367188 173.507812 117.871094 C 173.011719 117.375 172.488281 116.90625 171.945312 116.460938 C 171.398438 116.015625 170.835938 115.597656 170.25 115.207031 C 169.664062 114.816406 169.058594 114.457031 168.4375 114.125 C 167.816406 113.796875 167.183594 113.496094 166.53125 113.226562 C 165.878906 112.957031 165.21875 112.722656 164.542969 112.519531 C 163.871094 112.316406 163.1875 112.144531 162.496094 112.007812 C 161.804688 111.871094 161.109375 111.769531 160.410156 111.699219 C 159.707031 111.628906 159.007812 111.597656 158.300781 111.597656 L 154.175781 111.597656 C 153.90625 111.597656 153.648438 111.648438 153.402344 111.75 C 153.15625 111.851562 152.9375 111.996094 152.75 112.183594 C 152.558594 112.375 152.414062 112.589844 152.3125 112.835938 C 152.210938 113.082031 152.15625 113.339844 152.15625 113.605469 L 152.15625 121.707031 C 152.15625 122.40625 152.191406 123.105469 152.261719 123.800781 C 152.332031 124.5 152.433594 125.191406 152.570312 125.878906 C 152.707031 126.566406 152.878906 127.246094 153.082031 127.914062 C 153.285156 128.585938 153.523438 129.246094 153.792969 129.890625 C 154.0625 130.539062 154.363281 131.171875 154.695312 131.789062 C 155.023438 132.40625 155.386719 133.007812 155.777344 133.589844 C 156.167969 134.171875 156.585938 134.734375 157.03125 135.277344 C 157.476562 135.820312 157.949219 136.335938 158.449219 136.832031 C 158.945312 137.328125 159.464844 137.796875 160.007812 138.242188 C 160.550781 138.6875 161.117188 139.105469 161.703125 139.492188 C 162.285156 139.882812 162.886719 140.242188 163.507812 140.570312 C 164.128906 140.902344 164.765625 141.203125 165.414062 141.46875 C 166.0625 141.738281 166.726562 141.972656 167.398438 142.175781 C 168.070312 142.378906 168.753906 142.550781 169.441406 142.6875 C 170.132812 142.824219 170.828125 142.925781 171.527344 142.996094 C 172.226562 143.0625 172.929688 143.097656 173.632812 143.097656 L 175.742188 143.097656 C 175.992188 143.101562 176.226562 143.152344 176.453125 143.257812 C 176.679688 143.359375 176.875 143.503906 177.042969 143.691406 C 177.207031 143.875 177.328125 144.085938 177.40625 144.320312 C 177.480469 144.558594 177.503906 144.800781 177.480469 145.046875 L 176.144531 158.0625 C 176.117188 158.335938 176 158.570312 175.804688 158.761719 C 175.605469 158.953125 175.367188 159.058594 175.089844 159.082031 C 171.433594 159.316406 167.96875 160.253906 164.695312 161.894531 C 164.59375 161.957031 164.503906 162.027344 164.425781 162.113281 C 164.34375 162.195312 164.273438 162.289062 164.21875 162.390625 C 164.160156 162.492188 164.117188 162.597656 164.085938 162.710938 C 164.058594 162.824219 164.042969 162.9375 164.042969 163.054688 C 164.042969 163.171875 164.058594 163.285156 164.085938 163.398438 C 164.117188 163.507812 164.160156 163.617188 164.21875 163.71875 C 164.273438 163.820312 164.34375 163.910156 164.425781 163.996094 C 164.503906 164.078125 164.59375 164.152344 164.695312 164.214844 C 169.476562 166.476562 174.515625 167.503906 179.804688 167.304688 C 185.097656 167.503906 190.136719 166.476562 194.917969 164.214844 C 195.019531 164.152344 195.109375 164.078125 195.1875 163.996094 C 195.269531 163.910156 195.339844 163.820312 195.394531 163.71875 C 195.453125 163.617188 195.496094 163.507812 195.527344 163.398438 C 195.554688 163.285156 195.570312 163.171875 195.570312 163.054688 C 195.570312 162.9375 195.554688 162.824219 195.527344 162.710938 C 195.496094 162.597656 195.453125 162.492188 195.394531 162.390625 C 195.339844 162.289062 195.269531 162.195312 195.1875 162.113281 C 195.109375 162.027344 195.019531 161.957031 194.917969 161.894531 C 191.625 160.246094 188.140625 159.308594 184.460938 159.082031 C 184.183594 159.058594 183.945312 158.953125 183.75 158.761719 C 183.550781 158.570312 183.433594 158.335938 183.40625 158.0625 L 182.070312 145.046875 C 182.046875 144.800781 182.070312 144.558594 182.148438 144.320312 C 182.222656 144.085938 182.34375 143.875 182.507812 143.691406 C 182.675781 143.503906 182.871094 143.359375 183.097656 143.257812 C 183.324219 143.152344 183.5625 143.101562 183.808594 143.097656 L 185.917969 143.097656 C 186.621094 143.097656 187.324219 143.0625 188.023438 142.996094 C 188.722656 142.925781 189.417969 142.824219 190.109375 142.6875 C 190.796875 142.550781 191.480469 142.378906 192.152344 142.175781 C 192.824219 141.972656 193.488281 141.738281 194.136719 141.46875 C 194.785156 141.203125 195.421875 140.902344 196.042969 140.570312 C 196.664062 140.242188 197.265625 139.882812 197.851562 139.492188 C 198.433594 139.105469 199 138.6875 199.542969 138.242188 C 200.085938 137.796875 200.605469 137.328125 201.105469 136.832031 C 201.601562 136.335938 202.074219 135.820312 202.519531 135.277344 C 202.964844 134.734375 203.382812 134.171875 203.773438 133.589844 C 204.164062 133.007812 204.527344 132.40625 204.859375 131.789062 C 205.1875 131.171875 205.488281 130.539062 205.757812 129.890625 C 206.027344 129.246094 206.265625 128.585938 206.46875 127.914062 C 206.671875 127.246094 206.84375 126.566406 206.980469 125.878906 C 207.117188 125.191406 207.222656 124.5 207.289062 123.800781 C 207.359375 123.105469 207.394531 122.40625 207.394531 121.707031 L 207.394531 113.605469 C 207.394531 113.34375 207.34375 113.09375 207.246094 112.851562 C 207.148438 112.609375 207.007812 112.394531 206.824219 112.207031 C 206.640625 112.019531 206.429688 111.871094 206.191406 111.765625 C 205.953125 111.660156 205.699219 111.605469 205.4375 111.597656 Z M 205.4375 111.597656"/></clipPath><clipPath id="s"><path d="M 164 134 L 196 134 L 196 149 L 164 149 Z M 164 134"/></clipPath><clipPath id="t"><path d="M 179.804688 134.257812 C 171.644531 134.257812 164.910156 137.132812 164.074219 140.839844 C 167.082031 142.339844 170.269531 143.089844 173.632812 143.097656 L 175.742188 143.097656 C 175.992188 143.101562 176.226562 143.152344 176.453125 143.257812 C 176.679688 143.359375 176.875 143.503906 177.042969 143.691406 C 177.207031 143.875 177.328125 144.085938 177.40625 144.320312 C 177.480469 144.558594 177.503906 144.800781 177.480469 145.046875 L 177.074219 148.878906 C 178.894531 149.042969 180.714844 149.042969 182.539062 148.878906 L 182.132812 145.046875 C 182.109375 144.800781 182.132812 144.558594 182.207031 144.320312 C 182.285156 144.085938 182.40625 143.875 182.570312 143.691406 C 182.734375 143.503906 182.933594 143.359375 183.160156 143.257812 C 183.386719 143.152344 183.621094 143.101562 183.871094 143.097656 L 185.980469 143.097656 C 189.34375 143.101562 192.527344 142.359375 195.539062 140.871094 C 194.703125 137.132812 187.96875 134.257812 179.804688 134.257812 Z M 179.804688 134.257812"/></clipPath><clipPath id="v"><path d="M 152 111 L 180 111 L 180 144 L 152 144 Z M 152 111"/></clipPath><clipPath id="w"><path d="M 154.175781 111.597656 L 158.332031 111.597656 C 159.039062 111.597656 159.738281 111.628906 160.441406 111.699219 C 161.140625 111.769531 161.835938 111.871094 162.527344 112.007812 C 163.21875 112.144531 163.902344 112.316406 164.574219 112.519531 C 165.25 112.722656 165.910156 112.957031 166.5625 113.226562 C 167.214844 113.496094 167.847656 113.796875 168.46875 114.125 C 169.089844 114.457031 169.695312 114.816406 170.28125 115.207031 C 170.867188 115.597656 171.429688 116.015625 171.976562 116.460938 C 172.519531 116.90625 173.039062 117.375 173.539062 117.871094 C 174.035156 118.367188 174.507812 118.886719 174.957031 119.429688 C 175.402344 119.972656 175.820312 120.535156 176.214844 121.117188 C 176.605469 121.699219 176.964844 122.300781 177.296875 122.921875 C 177.628906 123.539062 177.929688 124.171875 178.199219 124.820312 C 178.46875 125.46875 178.707031 126.128906 178.910156 126.800781 C 179.117188 127.472656 179.285156 128.152344 179.425781 128.839844 C 179.5625 129.527344 179.664062 130.222656 179.734375 130.921875 C 179.804688 131.617188 179.835938 132.320312 179.835938 133.019531 L 179.835938 143.097656 L 173.632812 143.097656 C 172.925781 143.097656 172.222656 143.0625 171.523438 142.996094 C 170.824219 142.925781 170.125 142.824219 169.4375 142.6875 C 168.746094 142.550781 168.0625 142.378906 167.390625 142.175781 C 166.714844 141.972656 166.050781 141.734375 165.402344 141.46875 C 164.75 141.199219 164.117188 140.898438 163.496094 140.570312 C 162.871094 140.238281 162.269531 139.878906 161.683594 139.488281 C 161.097656 139.097656 160.535156 138.679688 159.988281 138.234375 C 159.445312 137.789062 158.921875 137.320312 158.425781 136.824219 C 157.925781 136.328125 157.453125 135.808594 157.007812 135.265625 C 156.5625 134.722656 156.140625 134.160156 155.75 133.578125 C 155.359375 132.992188 154.996094 132.390625 154.667969 131.773438 C 154.335938 131.15625 154.035156 130.519531 153.765625 129.871094 C 153.496094 129.226562 153.257812 128.566406 153.054688 127.894531 C 152.847656 127.222656 152.675781 126.542969 152.539062 125.855469 C 152.402344 125.164062 152.300781 124.472656 152.230469 123.773438 C 152.160156 123.074219 152.125 122.375 152.125 121.675781 L 152.125 113.605469 C 152.125 113.339844 152.179688 113.082031 152.28125 112.835938 C 152.382812 112.589844 152.527344 112.375 152.71875 112.183594 C 152.90625 111.996094 153.125 111.851562 153.371094 111.75 C 153.617188 111.648438 153.875 111.597656 154.144531 111.597656 Z M 154.175781 111.597656"/></clipPath><clipPath id="x"><path d="M 152 113 L 180 113 L 180 144 L 152 144 Z M 152 113"/></clipPath><clipPath id="y"><path d="M 167.796875 129.28125 C 162.5625 123.53125 157.390625 118.160156 152.28125 113.171875 C 152.265625 113.316406 152.265625 113.460938 152.28125 113.605469 L 152.28125 121.707031 C 152.28125 122.40625 152.316406 123.105469 152.386719 123.800781 C 152.453125 124.5 152.558594 125.191406 152.695312 125.878906 C 152.832031 126.566406 153.003906 127.246094 153.207031 127.914062 C 153.410156 128.585938 153.648438 129.246094 153.917969 129.890625 C 154.1875 130.539062 154.484375 131.171875 154.816406 131.789062 C 155.148438 132.40625 155.511719 133.007812 155.902344 133.589844 C 156.292969 134.171875 156.710938 134.734375 157.15625 135.277344 C 157.601562 135.820312 158.074219 136.335938 158.570312 136.832031 C 159.070312 137.328125 159.589844 137.796875 160.132812 138.242188 C 160.675781 138.6875 161.242188 139.105469 161.824219 139.492188 C 162.410156 139.882812 163.011719 140.242188 163.632812 140.570312 C 164.253906 140.902344 164.886719 141.203125 165.539062 141.46875 C 166.1875 141.738281 166.847656 141.972656 167.523438 142.175781 C 168.195312 142.378906 168.875 142.550781 169.566406 142.6875 C 170.257812 142.824219 170.949219 142.925781 171.652344 142.996094 C 172.351562 143.0625 173.050781 143.097656 173.753906 143.097656 L 179.960938 143.097656 C 176.050781 138.554688 172.046875 133.917969 167.796875 129.28125 Z M 167.796875 129.28125"/></clipPath><clipPath id="A"><path d="M 179 111 L 208 111 L 208 144 L 179 144 Z M 179 111"/></clipPath><clipPath id="B"><path d="M 185.949219 143.097656 L 179.746094 143.097656 L 179.746094 132.988281 C 179.746094 132.289062 179.777344 131.585938 179.847656 130.890625 C 179.917969 130.191406 180.019531 129.496094 180.15625 128.808594 C 180.296875 128.121094 180.464844 127.441406 180.671875 126.769531 C 180.875 126.097656 181.113281 125.4375 181.382812 124.789062 C 181.652344 124.140625 181.953125 123.507812 182.285156 122.890625 C 182.617188 122.269531 182.976562 121.671875 183.367188 121.085938 C 183.761719 120.503906 184.179688 119.941406 184.625 119.398438 C 185.074219 118.855469 185.546875 118.335938 186.042969 117.839844 C 186.542969 117.34375 187.0625 116.875 187.605469 116.429688 C 188.152344 115.984375 188.714844 115.566406 189.300781 115.175781 C 189.886719 114.785156 190.492188 114.425781 191.113281 114.09375 C 191.734375 113.765625 192.367188 113.464844 193.019531 113.195312 C 193.671875 112.925781 194.332031 112.691406 195.007812 112.488281 C 195.679688 112.285156 196.363281 112.113281 197.054688 111.976562 C 197.746094 111.839844 198.441406 111.738281 199.140625 111.667969 C 199.84375 111.601562 200.542969 111.566406 201.25 111.566406 L 205.4375 111.566406 C 205.707031 111.566406 205.964844 111.617188 206.210938 111.71875 C 206.457031 111.820312 206.675781 111.964844 206.863281 112.152344 C 207.054688 112.34375 207.199219 112.558594 207.300781 112.804688 C 207.402344 113.050781 207.457031 113.308594 207.457031 113.574219 L 207.457031 121.675781 C 207.457031 122.375 207.421875 123.074219 207.351562 123.773438 C 207.28125 124.472656 207.179688 125.164062 207.042969 125.855469 C 206.90625 126.542969 206.734375 127.222656 206.527344 127.894531 C 206.324219 128.566406 206.085938 129.226562 205.816406 129.871094 C 205.546875 130.519531 205.246094 131.15625 204.917969 131.773438 C 204.585938 132.390625 204.222656 132.992188 203.832031 133.578125 C 203.441406 134.160156 203.019531 134.722656 202.574219 135.265625 C 202.128906 135.808594 201.65625 136.328125 201.15625 136.824219 C 200.660156 137.320312 200.136719 137.789062 199.59375 138.234375 C 199.046875 138.679688 198.484375 139.097656 197.898438 139.488281 C 197.3125 139.878906 196.710938 140.238281 196.085938 140.570312 C 195.464844 140.898438 194.832031 141.199219 194.179688 141.46875 C 193.53125 141.734375 192.867188 141.972656 192.191406 142.175781 C 191.519531 142.378906 190.835938 142.550781 190.144531 142.6875 C 189.457031 142.824219 188.757812 142.925781 188.058594 142.996094 C 187.359375 143.0625 186.65625 143.097656 185.949219 143.097656 Z M 185.949219 143.097656"/></clipPath><clipPath id="C"><path d="M 179 113 L 208 113 L 208 144 L 179 144 Z M 179 113"/></clipPath><clipPath id="D"><path d="M 191.816406 129.28125 C 197.050781 123.53125 202.222656 118.160156 207.332031 113.171875 C 207.347656 113.316406 207.347656 113.460938 207.332031 113.605469 L 207.332031 121.707031 C 207.332031 122.40625 207.296875 123.105469 207.226562 123.800781 C 207.160156 124.5 207.054688 125.191406 206.917969 125.878906 C 206.78125 126.566406 206.609375 127.246094 206.40625 127.914062 C 206.203125 128.585938 205.964844 129.246094 205.695312 129.890625 C 205.425781 130.539062 205.128906 131.171875 204.796875 131.789062 C 204.464844 132.40625 204.101562 133.007812 203.710938 133.589844 C 203.320312 134.171875 202.902344 134.734375 202.457031 135.277344 C 202.011719 135.820312 201.539062 136.335938 201.042969 136.832031 C 200.542969 137.328125 200.023438 137.796875 199.480469 138.242188 C 198.9375 138.6875 198.371094 139.105469 197.789062 139.492188 C 197.203125 139.882812 196.601562 140.242188 195.980469 140.570312 C 195.359375 140.902344 194.726562 141.203125 194.074219 141.46875 C 193.425781 141.738281 192.765625 141.972656 192.089844 142.175781 C 191.417969 142.378906 190.738281 142.550781 190.046875 142.6875 C 189.355469 142.824219 188.664062 142.925781 187.960938 142.996094 C 187.261719 143.0625 186.5625 143.097656 185.859375 143.097656 L 179.652344 143.097656 C 183.5625 138.554688 187.5625 133.917969 191.816406 129.28125 Z M 191.816406 129.28125"/></clipPath><clipPath id="F"><path d="M 164 158 L 177 158 L 177 164 L 164 164 Z M 164 158"/></clipPath><clipPath id="G"><path d="M 176.082031 158.246094 C 176.015625 158.472656 175.890625 158.660156 175.710938 158.8125 C 175.53125 158.964844 175.324219 159.054688 175.089844 159.082031 C 171.433594 159.316406 167.96875 160.253906 164.695312 161.894531 C 164.425781 162.066406 164.238281 162.304688 164.136719 162.605469 C 165.503906 163.449219 166.992188 163.875 168.605469 163.871094 C 169.027344 163.894531 169.453125 163.882812 169.875 163.832031 C 170.296875 163.78125 170.710938 163.691406 171.121094 163.570312 C 171.527344 163.445312 171.917969 163.285156 172.296875 163.09375 C 172.675781 162.902344 173.035156 162.679688 173.375 162.421875 C 173.714844 162.167969 174.03125 161.882812 174.320312 161.574219 C 174.609375 161.261719 174.871094 160.929688 175.101562 160.574219 C 175.332031 160.21875 175.53125 159.84375 175.695312 159.453125 C 175.859375 159.0625 175.988281 158.660156 176.082031 158.246094 Z M 176.082031 158.246094"/></clipPath><clipPath id="I"><path d="M 183 158 L 196 158 L 196 164 L 183 164 Z M 183 158"/></clipPath><clipPath id="J"><path d="M 194.917969 161.894531 C 191.625 160.246094 188.140625 159.308594 184.460938 159.082031 C 184.226562 159.054688 184.019531 158.964844 183.839844 158.8125 C 183.660156 158.660156 183.535156 158.472656 183.46875 158.246094 C 183.5625 158.660156 183.691406 159.0625 183.855469 159.453125 C 184.019531 159.84375 184.21875 160.21875 184.449219 160.574219 C 184.679688 160.929688 184.941406 161.261719 185.230469 161.574219 C 185.519531 161.882812 185.835938 162.167969 186.175781 162.421875 C 186.515625 162.679688 186.875 162.902344 187.253906 163.09375 C 187.632812 163.285156 188.023438 163.445312 188.429688 163.570312 C 188.839844 163.691406 189.253906 163.78125 189.675781 163.832031 C 190.097656 163.882812 190.523438 163.894531 190.945312 163.871094 C 192.589844 163.855469 194.097656 163.402344 195.476562 162.511719 C 195.359375 162.246094 195.171875 162.039062 194.917969 161.894531 Z M 194.917969 161.894531"/></clipPath><clipPath id="L"><path d="M 179 126 L 190 126 L 190 176.199219 L 179 176.199219 Z M 179 126"/></clipPath><clipPath id="M"><path d="M 146 115 L 182 115 L 182 176.199219 L 146 176.199219 Z M 146 115"/></clipPath><clipPath id="N"><path d="M 187 115 L 223 115 L 223 176.199219 L 187 176.199219 Z M 187 115"/></clipPath><clipPath id="O"><path d="M 179 126 L 190 126 L 190 176.199219 L 179 176.199219 Z M 179 126"/></clipPath><clipPath id="P"><path d="M 211 139 L 224.984375 139 L 224.984375 145 L 211 145 Z M 211 139"/></clipPath><clipPath id="Q"><path d="M 211 143 L 224.984375 143 L 224.984375 149 L 211 149 Z M 211 143"/></clipPath><linearGradient x1="-1066.947" gradientTransform="matrix(-3.10311 0 0 3.09146 -3073.805 82.135)" xmlns:xlink="http://www.w3.org/1999/xlink" y1="44.728" x2="-1064.076" gradientUnits="userSpaceOnUse" y2="38.193" xlink:type="simple" xlink:actuate="onLoad" id="c" xlink:show="other"><stop stop-color="#243687" offset="0"/><stop stop-color="#243687" offset=".008"/><stop stop-color="#243687" offset=".016"/><stop stop-color="#243686" offset=".023"/><stop stop-color="#243686" offset=".031"/><stop stop-color="#243585" offset=".039"/><stop stop-color="#243585" offset=".047"/><stop stop-color="#243584" offset=".055"/><stop stop-color="#243584" offset=".063"/><stop stop-color="#243583" offset=".07"/><stop stop-color="#243583" offset=".078"/><stop stop-color="#243582" offset=".086"/><stop stop-color="#243581" offset=".094"/><stop stop-color="#243581" offset=".102"/><stop stop-color="#243480" offset=".109"/><stop stop-color="#233480" offset=".117"/><stop stop-color="#23347F" offset=".125"/><stop stop-color="#23347F" offset=".133"/><stop stop-color="#23347E" offset=".141"/><stop stop-color="#23347E" offset=".148"/><stop stop-color="#23347D" offset=".156"/><stop stop-color="#23347D" offset=".164"/><stop stop-color="#23347C" offset=".172"/><stop stop-color="#23347C" offset=".18"/><stop stop-color="#23337B" offset=".188"/><stop stop-color="#23337B" offset=".195"/><stop stop-color="#23337A" offset=".203"/><stop stop-color="#23337A" offset=".211"/><stop stop-color="#233379" offset=".219"/><stop stop-color="#223379" offset=".227"/><stop stop-color="#223378" offset=".234"/><stop stop-color="#223378" offset=".242"/><stop stop-color="#237" offset=".25"/><stop stop-color="#237" offset=".258"/><stop stop-color="#223276" offset=".266"/><stop stop-color="#223276" offset=".273"/><stop stop-color="#223275" offset=".281"/><stop stop-color="#223275" offset=".289"/><stop stop-color="#223274" offset=".297"/><stop stop-color="#223274" offset=".305"/><stop stop-color="#223273" offset=".313"/><stop stop-color="#223273" offset=".32"/><stop stop-color="#223272" offset=".328"/><stop stop-color="#223172" offset=".331"/><stop stop-color="#213171" offset=".336"/><stop stop-color="#213171" offset=".344"/><stop stop-color="#213170" offset=".352"/><stop stop-color="#213170" offset=".359"/><stop stop-color="#21316F" offset=".367"/><stop stop-color="#21316F" offset=".375"/><stop stop-color="#21316E" offset=".383"/><stop stop-color="#21316E" offset=".391"/><stop stop-color="#21316D" offset=".398"/><stop stop-color="#21316D" offset=".406"/><stop stop-color="#21306C" offset=".414"/><stop stop-color="#21306C" offset=".422"/><stop stop-color="#21306B" offset=".43"/><stop stop-color="#21306B" offset=".438"/><stop stop-color="#21306A" offset=".445"/><stop stop-color="#21306A" offset=".453"/><stop stop-color="#203069" offset=".461"/><stop stop-color="#203069" offset=".469"/><stop stop-color="#203068" offset=".477"/><stop stop-color="#202F68" offset=".484"/><stop stop-color="#202F67" offset=".492"/><stop stop-color="#202F67" offset=".5"/><stop stop-color="#202F66" offset=".508"/><stop stop-color="#202F66" offset=".516"/><stop stop-color="#202F65" offset=".523"/><stop stop-color="#202F65" offset=".531"/><stop stop-color="#1F2F64" offset=".539"/><stop stop-color="#1F2E63" offset=".547"/><stop stop-color="#1F2E63" offset=".555"/><stop stop-color="#1E2E62" offset=".563"/><stop stop-color="#1E2E61" offset=".57"/><stop stop-color="#1D2E61" offset=".578"/><stop stop-color="#1D2D60" offset=".586"/><stop stop-color="#1D2D5F" offset=".594"/><stop stop-color="#1C2D5F" offset=".602"/><stop stop-color="#1C2D5E" offset=".609"/><stop stop-color="#1C2D5D" offset=".617"/><stop stop-color="#1B2C5D" offset=".625"/><stop stop-color="#1B2C5C" offset=".633"/><stop stop-color="#1B2C5B" offset=".641"/><stop stop-color="#1A2C5B" offset=".648"/><stop stop-color="#1A2C5A" offset=".656"/><stop stop-color="#192B59" offset=".664"/><stop stop-color="#192B59" offset=".669"/><stop stop-color="#192B58" offset=".672"/><stop stop-color="#192B58" offset=".68"/><stop stop-color="#182B57" offset=".688"/><stop stop-color="#182A57" offset=".695"/><stop stop-color="#182A56" offset=".703"/><stop stop-color="#172A55" offset=".711"/><stop stop-color="#172A55" offset=".719"/><stop stop-color="#172A54" offset=".727"/><stop stop-color="#162953" offset=".734"/><stop stop-color="#162953" offset=".742"/><stop stop-color="#152952" offset=".75"/><stop stop-color="#152952" offset=".758"/><stop stop-color="#152951" offset=".766"/><stop stop-color="#142850" offset=".773"/><stop stop-color="#142850" offset=".781"/><stop stop-color="#14284F" offset=".789"/><stop stop-color="#13284E" offset=".797"/><stop stop-color="#13284E" offset=".805"/><stop stop-color="#13274D" offset=".813"/><stop stop-color="#12274C" offset=".82"/><stop stop-color="#12274C" offset=".828"/><stop stop-color="#12274B" offset=".836"/><stop stop-color="#11274A" offset=".844"/><stop stop-color="#11264A" offset=".852"/><stop stop-color="#102649" offset=".859"/><stop stop-color="#102648" offset=".867"/><stop stop-color="#102648" offset=".875"/><stop stop-color="#0F2647" offset=".883"/><stop stop-color="#0F2546" offset=".891"/><stop stop-color="#0F2546" offset=".898"/><stop stop-color="#0E2545" offset=".906"/><stop stop-color="#0E2544" offset=".914"/><stop stop-color="#0E2544" offset=".922"/><stop stop-color="#0D2443" offset=".93"/><stop stop-color="#0D2442" offset=".938"/><stop stop-color="#0C2442" offset=".945"/><stop stop-color="#0C2441" offset=".953"/><stop stop-color="#0C2440" offset=".961"/><stop stop-color="#0B2340" offset=".969"/><stop stop-color="#0B233F" offset=".977"/><stop stop-color="#0B233E" offset=".984"/><stop stop-color="#0A233E" offset=".992"/><stop stop-color="#0A233D" offset="1"/></linearGradient><linearGradient x1="-1059.8" gradientTransform="matrix(-3.10311 0 0 3.09146 -3073.805 82.135)" xmlns:xlink="http://www.w3.org/1999/xlink" y1="41.85" x2="-1059.8" gradientUnits="userSpaceOnUse" y2="24.54" xlink:type="simple" xlink:actuate="onLoad" id="f" xlink:show="other"><stop stop-color="#223378" offset="0"/><stop stop-color="#223378" offset=".016"/><stop stop-color="#223378" offset=".031"/><stop stop-color="#237" offset=".047"/><stop stop-color="#223277" offset=".063"/><stop stop-color="#223276" offset=".078"/><stop stop-color="#223276" offset=".094"/><stop stop-color="#223275" offset=".109"/><stop stop-color="#223275" offset=".125"/><stop stop-color="#223274" offset=".141"/><stop stop-color="#223274" offset=".156"/><stop stop-color="#223273" offset=".172"/><stop stop-color="#223272" offset=".188"/><stop stop-color="#223272" offset=".203"/><stop stop-color="#223171" offset=".219"/><stop stop-color="#213171" offset=".234"/><stop stop-color="#213170" offset=".25"/><stop stop-color="#213170" offset=".266"/><stop stop-color="#21316F" offset=".281"/><stop stop-color="#21316F" offset=".297"/><stop stop-color="#21316E" offset=".313"/><stop stop-color="#21316E" offset=".328"/><stop stop-color="#21316D" offset=".344"/><stop stop-color="#21306D" offset=".359"/><stop stop-color="#21306C" offset=".375"/><stop stop-color="#21306C" offset=".391"/><stop stop-color="#21306B" offset=".406"/><stop stop-color="#21306B" offset=".422"/><stop stop-color="#21306A" offset=".438"/><stop stop-color="#20306A" offset=".453"/><stop stop-color="#203069" offset=".469"/><stop stop-color="#203069" offset=".484"/><stop stop-color="#203068" offset=".5"/><stop stop-color="#202F67" offset=".516"/><stop stop-color="#202F67" offset=".531"/><stop stop-color="#202F66" offset=".547"/><stop stop-color="#202F66" offset=".563"/><stop stop-color="#202F65" offset=".578"/><stop stop-color="#202F65" offset=".594"/><stop stop-color="#1F2F64" offset=".609"/><stop stop-color="#1F2E63" offset=".625"/><stop stop-color="#1F2E63" offset=".641"/><stop stop-color="#1E2E62" offset=".656"/><stop stop-color="#1E2E61" offset=".672"/><stop stop-color="#1E2E61" offset=".688"/><stop stop-color="#1D2D60" offset=".703"/><stop stop-color="#1D2D60" offset=".719"/><stop stop-color="#1C2D5F" offset=".734"/><stop stop-color="#1C2D5E" offset=".75"/><stop stop-color="#1C2D5E" offset=".766"/><stop stop-color="#1B2C5D" offset=".781"/><stop stop-color="#1B2C5C" offset=".797"/><stop stop-color="#1B2C5C" offset=".813"/><stop stop-color="#1A2C5B" offset=".828"/><stop stop-color="#1A2C5A" offset=".844"/><stop stop-color="#1A2B5A" offset=".859"/><stop stop-color="#192B59" offset=".875"/><stop stop-color="#192B58" offset=".891"/><stop stop-color="#182B58" offset=".906"/><stop stop-color="#182B57" offset=".922"/><stop stop-color="#182A56" offset=".938"/><stop stop-color="#172A56" offset=".953"/><stop stop-color="#172A55" offset=".969"/><stop stop-color="#172A54" offset=".984"/><stop stop-color="#162954" offset="1"/></linearGradient><linearGradient x1="10.042" gradientTransform="matrix(3.10311 0 0 3.09146 109.987 82.135)" xmlns:xlink="http://www.w3.org/1999/xlink" y1="38.532" x2="14.975" gradientUnits="userSpaceOnUse" y2="27.17" xlink:type="simple" xlink:actuate="onLoad" id="i" xlink:show="other"><stop stop-color="#F3B073" offset="0"/><stop stop-color="#F3B073" offset=".008"/><stop stop-color="#F3AF73" offset=".016"/><stop stop-color="#F3AF72" offset=".023"/><stop stop-color="#F3AE72" offset=".031"/><stop stop-color="#F3AE72" offset=".039"/><stop stop-color="#F3AD72" offset=".047"/><stop stop-color="#F3AD72" offset=".055"/><stop stop-color="#F3AC72" offset=".063"/><stop stop-color="#F3AC71" offset=".07"/><stop stop-color="#F3AB71" offset=".078"/><stop stop-color="#F3AA71" offset=".086"/><stop stop-color="#F3AA71" offset=".094"/><stop stop-color="#F3A971" offset=".102"/><stop stop-color="#F3A970" offset=".109"/><stop stop-color="#F3A870" offset=".117"/><stop stop-color="#F3A870" offset=".125"/><stop stop-color="#F3A770" offset=".133"/><stop stop-color="#F3A770" offset=".141"/><stop stop-color="#F3A66F" offset=".148"/><stop stop-color="#F3A66F" offset=".156"/><stop stop-color="#F3A56F" offset=".164"/><stop stop-color="#F3A46F" offset=".172"/><stop stop-color="#F3A46F" offset=".18"/><stop stop-color="#F3A36F" offset=".188"/><stop stop-color="#F3A36E" offset=".195"/><stop stop-color="#F3A26E" offset=".203"/><stop stop-color="#F3A26E" offset=".211"/><stop stop-color="#F3A16E" offset=".219"/><stop stop-color="#F3A16E" offset=".227"/><stop stop-color="#F3A06D" offset=".234"/><stop stop-color="#F3A06D" offset=".242"/><stop stop-color="#F39F6D" offset=".25"/><stop stop-color="#F39E6D" offset=".258"/><stop stop-color="#F39E6D" offset=".266"/><stop stop-color="#F39D6D" offset=".273"/><stop stop-color="#F39D6C" offset=".281"/><stop stop-color="#F39C6C" offset=".289"/><stop stop-color="#F39C6C" offset=".297"/><stop stop-color="#F39B6C" offset=".305"/><stop stop-color="#F39B6C" offset=".313"/><stop stop-color="#F39A6B" offset=".32"/><stop stop-color="#F3996B" offset=".328"/><stop stop-color="#F3996B" offset=".328"/><stop stop-color="#F3996B" offset=".336"/><stop stop-color="#F3986B" offset=".344"/><stop stop-color="#F3986B" offset=".352"/><stop stop-color="#F3976B" offset=".359"/><stop stop-color="#F3976A" offset=".367"/><stop stop-color="#F3966A" offset=".375"/><stop stop-color="#F3966A" offset=".383"/><stop stop-color="#F3956A" offset=".391"/><stop stop-color="#F3956A" offset=".398"/><stop stop-color="#F39469" offset=".406"/><stop stop-color="#F39369" offset=".414"/><stop stop-color="#F39369" offset=".422"/><stop stop-color="#F39269" offset=".43"/><stop stop-color="#F39169" offset=".438"/><stop stop-color="#F39069" offset=".445"/><stop stop-color="#F39069" offset=".453"/><stop stop-color="#F28F69" offset=".461"/><stop stop-color="#F28E69" offset=".469"/><stop stop-color="#F28D69" offset=".477"/><stop stop-color="#F28D69" offset=".484"/><stop stop-color="#F28C69" offset=".492"/><stop stop-color="#F28B69" offset=".5"/><stop stop-color="#F28A69" offset=".508"/><stop stop-color="#F28969" offset=".516"/><stop stop-color="#F28969" offset=".523"/><stop stop-color="#F28869" offset=".531"/><stop stop-color="#F18769" offset=".539"/><stop stop-color="#F18669" offset=".547"/><stop stop-color="#F18569" offset=".555"/><stop stop-color="#F18569" offset=".563"/><stop stop-color="#F18469" offset=".57"/><stop stop-color="#F18369" offset=".578"/><stop stop-color="#F18269" offset=".586"/><stop stop-color="#F18269" offset=".594"/><stop stop-color="#F18169" offset=".602"/><stop stop-color="#F08069" offset=".609"/><stop stop-color="#F07F69" offset=".617"/><stop stop-color="#F07E69" offset=".625"/><stop stop-color="#F07E68" offset=".633"/><stop stop-color="#F07D68" offset=".641"/><stop stop-color="#F07C68" offset=".648"/><stop stop-color="#F07B68" offset=".656"/><stop stop-color="#F07A68" offset=".664"/><stop stop-color="#F07A68" offset=".672"/><stop stop-color="#F07968" offset=".672"/><stop stop-color="#F07868" offset=".68"/><stop stop-color="#EF7868" offset=".688"/><stop stop-color="#EF7768" offset=".695"/><stop stop-color="#EF7668" offset=".703"/><stop stop-color="#EF7668" offset=".711"/><stop stop-color="#EF7568" offset=".719"/><stop stop-color="#EF7468" offset=".727"/><stop stop-color="#EF7368" offset=".734"/><stop stop-color="#EF7368" offset=".742"/><stop stop-color="#EF7268" offset=".75"/><stop stop-color="#EF7168" offset=".758"/><stop stop-color="#EE7068" offset=".766"/><stop stop-color="#EE6F68" offset=".773"/><stop stop-color="#EE6F68" offset=".781"/><stop stop-color="#EE6E68" offset=".789"/><stop stop-color="#EE6D68" offset=".797"/><stop stop-color="#EE6C68" offset=".805"/><stop stop-color="#EE6B68" offset=".813"/><stop stop-color="#EE6B68" offset=".82"/><stop stop-color="#EE6A68" offset=".828"/><stop stop-color="#ED6968" offset=".836"/><stop stop-color="#ED6868" offset=".844"/><stop stop-color="#ED6868" offset=".852"/><stop stop-color="#ED6768" offset=".859"/><stop stop-color="#ED6668" offset=".867"/><stop stop-color="#ED6568" offset=".875"/><stop stop-color="#ED6468" offset=".883"/><stop stop-color="#ED6468" offset=".891"/><stop stop-color="#ED6368" offset=".898"/><stop stop-color="#ED6268" offset=".906"/><stop stop-color="#EC6168" offset=".914"/><stop stop-color="#EC6068" offset=".922"/><stop stop-color="#EC6068" offset=".93"/><stop stop-color="#EC5F68" offset=".938"/><stop stop-color="#EC5E68" offset=".945"/><stop stop-color="#EC5D68" offset=".953"/><stop stop-color="#EC5C68" offset=".961"/><stop stop-color="#EC5C68" offset=".969"/><stop stop-color="#EC5B68" offset=".977"/><stop stop-color="#EB5A68" offset=".984"/><stop stop-color="#EB5967" offset=".992"/><stop stop-color="#EB5967" offset="1"/></linearGradient><linearGradient x1="22.5" gradientTransform="matrix(3.10311 0 0 3.09146 109.987 82.135)" xmlns:xlink="http://www.w3.org/1999/xlink" y1="33.53" x2="22.5" gradientUnits="userSpaceOnUse" y2="3.53" xlink:type="simple" xlink:actuate="onLoad" id="l" xlink:show="other"><stop stop-color="#F3A06E" offset="0"/><stop stop-color="#F3A06D" offset=".016"/><stop stop-color="#F3A06D" offset=".031"/><stop stop-color="#F39F6D" offset=".047"/><stop stop-color="#F39E6D" offset=".063"/><stop stop-color="#F39E6D" offset=".078"/><stop stop-color="#F39D6D" offset=".094"/><stop stop-color="#F39D6C" offset=".109"/><stop stop-color="#F39C6C" offset=".125"/><stop stop-color="#F39C6C" offset=".141"/><stop stop-color="#F39B6C" offset=".156"/><stop stop-color="#F39B6C" offset=".172"/><stop stop-color="#F39A6B" offset=".188"/><stop stop-color="#F3996B" offset=".203"/><stop stop-color="#F3996B" offset=".219"/><stop stop-color="#F3986B" offset=".234"/><stop stop-color="#F3986B" offset=".25"/><stop stop-color="#F3976B" offset=".266"/><stop stop-color="#F3976A" offset=".281"/><stop stop-color="#F3966A" offset=".297"/><stop stop-color="#F3966A" offset=".313"/><stop stop-color="#F3956A" offset=".328"/><stop stop-color="#F3946A" offset=".344"/><stop stop-color="#F39469" offset=".359"/><stop stop-color="#F39369" offset=".375"/><stop stop-color="#F39369" offset=".391"/><stop stop-color="#F39269" offset=".406"/><stop stop-color="#F39169" offset=".422"/><stop stop-color="#F39069" offset=".438"/><stop stop-color="#F39069" offset=".453"/><stop stop-color="#F28F69" offset=".469"/><stop stop-color="#F28E69" offset=".484"/><stop stop-color="#F28D69" offset=".5"/><stop stop-color="#F28C69" offset=".516"/><stop stop-color="#F28C69" offset=".531"/><stop stop-color="#F28B69" offset=".547"/><stop stop-color="#F28A69" offset=".563"/><stop stop-color="#F28969" offset=".578"/><stop stop-color="#F28869" offset=".594"/><stop stop-color="#F28869" offset=".609"/><stop stop-color="#F18769" offset=".625"/><stop stop-color="#F18669" offset=".641"/><stop stop-color="#F18569" offset=".656"/><stop stop-color="#F18469" offset=".672"/><stop stop-color="#F18469" offset=".688"/><stop stop-color="#F18369" offset=".703"/><stop stop-color="#F18269" offset=".719"/><stop stop-color="#F18169" offset=".734"/><stop stop-color="#F18069" offset=".75"/><stop stop-color="#F08069" offset=".766"/><stop stop-color="#F07F69" offset=".781"/><stop stop-color="#F07E68" offset=".797"/><stop stop-color="#F07D68" offset=".813"/><stop stop-color="#F07C68" offset=".828"/><stop stop-color="#F07C68" offset=".844"/><stop stop-color="#F07B68" offset=".859"/><stop stop-color="#F07A68" offset=".875"/><stop stop-color="#F07968" offset=".891"/><stop stop-color="#F07868" offset=".906"/><stop stop-color="#EF7868" offset=".922"/><stop stop-color="#EF7768" offset=".938"/><stop stop-color="#EF7668" offset=".953"/><stop stop-color="#EF7568" offset=".969"/><stop stop-color="#EF7468" offset=".984"/><stop stop-color="#EF7468" offset="1"/></linearGradient><linearGradient x1="38.452" gradientTransform="matrix(3.10311 0 0 3.09146 109.987 82.135)" xmlns:xlink="http://www.w3.org/1999/xlink" y1="36.532" x2="25.878" gradientUnits="userSpaceOnUse" y2="21.672" xlink:type="simple" xlink:actuate="onLoad" id="o" xlink:show="other"><stop stop-color="#F3976A" offset="0"/><stop stop-color="#F3966A" offset=".016"/><stop stop-color="#F3966A" offset=".031"/><stop stop-color="#F3956A" offset=".047"/><stop stop-color="#F3956A" offset=".063"/><stop stop-color="#F39469" offset=".078"/><stop stop-color="#F39369" offset=".094"/><stop stop-color="#F39369" offset=".109"/><stop stop-color="#F39269" offset=".125"/><stop stop-color="#F39169" offset=".141"/><stop stop-color="#F39069" offset=".156"/><stop stop-color="#F38F69" offset=".172"/><stop stop-color="#F28E69" offset=".188"/><stop stop-color="#F28D69" offset=".203"/><stop stop-color="#F28C69" offset=".219"/><stop stop-color="#F28C69" offset=".234"/><stop stop-color="#F28B69" offset=".25"/><stop stop-color="#F28A69" offset=".266"/><stop stop-color="#F28969" offset=".281"/><stop stop-color="#F28869" offset=".297"/><stop stop-color="#F18769" offset=".313"/><stop stop-color="#F18669" offset=".328"/><stop stop-color="#F18569" offset=".344"/><stop stop-color="#F18569" offset=".353"/><stop stop-color="#F18469" offset=".359"/><stop stop-color="#F18469" offset=".375"/><stop stop-color="#F18369" offset=".391"/><stop stop-color="#F18269" offset=".406"/><stop stop-color="#F18169" offset=".422"/><stop stop-color="#F18069" offset=".438"/><stop stop-color="#F07F69" offset=".453"/><stop stop-color="#F07E69" offset=".469"/><stop stop-color="#F07E68" offset=".484"/><stop stop-color="#F07D68" offset=".5"/><stop stop-color="#F07C68" offset=".516"/><stop stop-color="#F07B68" offset=".531"/><stop stop-color="#F07A68" offset=".547"/><stop stop-color="#F07968" offset=".563"/><stop stop-color="#EF7868" offset=".578"/><stop stop-color="#EF7768" offset=".594"/><stop stop-color="#EF7768" offset=".609"/><stop stop-color="#EF7668" offset=".625"/><stop stop-color="#EF7568" offset=".641"/><stop stop-color="#EF7468" offset=".647"/><stop stop-color="#EF7468" offset=".656"/><stop stop-color="#EF7368" offset=".672"/><stop stop-color="#EF7268" offset=".688"/><stop stop-color="#EF7168" offset=".703"/><stop stop-color="#EE7068" offset=".719"/><stop stop-color="#EE7068" offset=".734"/><stop stop-color="#EE6F68" offset=".75"/><stop stop-color="#EE6E68" offset=".766"/><stop stop-color="#EE6D68" offset=".781"/><stop stop-color="#EE6C68" offset=".797"/><stop stop-color="#EE6B68" offset=".813"/><stop stop-color="#EE6A68" offset=".828"/><stop stop-color="#EE6968" offset=".844"/><stop stop-color="#ED6968" offset=".859"/><stop stop-color="#ED6868" offset=".875"/><stop stop-color="#ED6768" offset=".891"/><stop stop-color="#ED6668" offset=".906"/><stop stop-color="#ED6568" offset=".922"/><stop stop-color="#ED6468" offset=".938"/><stop stop-color="#ED6368" offset=".953"/><stop stop-color="#ED6268" offset=".969"/><stop stop-color="#EC6268" offset=".984"/><stop stop-color="#EC6168" offset="1"/></linearGradient><linearGradient x1="22.5" gradientTransform="matrix(3.10311 0 0 3.09146 109.987 82.135)" xmlns:xlink="http://www.w3.org/1999/xlink" y1="27.615" x2="22.5" gradientUnits="userSpaceOnUse" y2="9.53" xlink:type="simple" xlink:actuate="onLoad" id="r" xlink:show="other"><stop stop-color="#FFF" offset="0"/><stop stop-color="#FFF" offset=".25"/><stop stop-color="#FFF" offset=".281"/><stop stop-color="#FFF" offset=".289"/><stop stop-color="#FEFFFF" offset=".293"/><stop stop-color="#FEFEFE" offset=".297"/><stop stop-color="#FDFEFE" offset=".301"/><stop stop-color="#FCFDFE" offset=".305"/><stop stop-color="#FCFDFD" offset=".309"/><stop stop-color="#FBFDFD" offset=".313"/><stop stop-color="#FAFCFD" offset=".316"/><stop stop-color="#FAFCFC" offset=".32"/><stop stop-color="#F9FCFC" offset=".324"/><stop stop-color="#F8FBFC" offset=".328"/><stop stop-color="#F8FBFB" offset=".332"/><stop stop-color="#F7FBFB" offset=".336"/><stop stop-color="#F7FAFB" offset=".34"/><stop stop-color="#F6FAFB" offset=".344"/><stop stop-color="#F5F9FA" offset=".348"/><stop stop-color="#F5F9FA" offset=".352"/><stop stop-color="#F4F9FA" offset=".355"/><stop stop-color="#F3F8F9" offset=".359"/><stop stop-color="#F3F8F9" offset=".363"/><stop stop-color="#F2F8F9" offset=".367"/><stop stop-color="#F1F7F8" offset=".371"/><stop stop-color="#F1F7F8" offset=".375"/><stop stop-color="#F0F7F8" offset=".379"/><stop stop-color="#F0F6F7" offset=".383"/><stop stop-color="#EFF6F7" offset=".387"/><stop stop-color="#EEF5F7" offset=".391"/><stop stop-color="#EEF5F7" offset=".395"/><stop stop-color="#EDF5F6" offset=".398"/><stop stop-color="#ECF4F6" offset=".402"/><stop stop-color="#ECF4F6" offset=".406"/><stop stop-color="#EBF4F5" offset=".41"/><stop stop-color="#EAF3F5" offset=".414"/><stop stop-color="#EAF3F5" offset=".418"/><stop stop-color="#E9F3F4" offset=".422"/><stop stop-color="#E9F2F4" offset=".426"/><stop stop-color="#E8F2F4" offset=".43"/><stop stop-color="#E7F2F3" offset=".434"/><stop stop-color="#E7F1F3" offset=".438"/><stop stop-color="#E6F1F3" offset=".441"/><stop stop-color="#E5F0F2" offset=".445"/><stop stop-color="#E5F0F2" offset=".449"/><stop stop-color="#E4F0F2" offset=".453"/><stop stop-color="#E4EFF2" offset=".457"/><stop stop-color="#E3EFF1" offset=".461"/><stop stop-color="#E2EFF1" offset=".465"/><stop stop-color="#E2EEF1" offset=".469"/><stop stop-color="#E1EEF0" offset=".473"/><stop stop-color="#E0EEF0" offset=".477"/><stop stop-color="#E0EDF0" offset=".48"/><stop stop-color="#DFEDEF" offset=".484"/><stop stop-color="#DEECEF" offset=".488"/><stop stop-color="#DEECEF" offset=".492"/><stop stop-color="#DDECEE" offset=".496"/><stop stop-color="#DDEBEE" offset=".5"/><stop stop-color="#DCEBEE" offset=".504"/><stop stop-color="#DBEBED" offset=".508"/><stop stop-color="#DBEAED" offset=".512"/><stop stop-color="#DAEAED" offset=".516"/><stop stop-color="#D9EAED" offset=".52"/><stop stop-color="#D9E9EC" offset=".523"/><stop stop-color="#D8E9EC" offset=".527"/><stop stop-color="#D7E8EC" offset=".531"/><stop stop-color="#D7E8EB" offset=".535"/><stop stop-color="#D6E8EB" offset=".539"/><stop stop-color="#D6E7EB" offset=".543"/><stop stop-color="#D5E7EA" offset=".547"/><stop stop-color="#D4E7EA" offset=".551"/><stop stop-color="#D4E6EA" offset=".555"/><stop stop-color="#D3E6E9" offset=".559"/><stop stop-color="#D2E6E9" offset=".563"/><stop stop-color="#D2E5E9" offset=".566"/><stop stop-color="#D1E5E9" offset=".57"/><stop stop-color="#D0E4E8" offset=".574"/><stop stop-color="#D0E4E8" offset=".578"/><stop stop-color="#CFE4E8" offset=".582"/><stop stop-color="#CFE3E7" offset=".586"/><stop stop-color="#CEE3E7" offset=".59"/><stop stop-color="#CDE3E7" offset=".594"/><stop stop-color="#CDE2E6" offset=".598"/><stop stop-color="#CCE2E6" offset=".602"/><stop stop-color="#CBE1E5" offset=".605"/><stop stop-color="#CAE0E5" offset=".609"/><stop stop-color="#CADFE4" offset=".613"/><stop stop-color="#C9DEE4" offset=".617"/><stop stop-color="#C8DEE3" offset=".621"/><stop stop-color="#C7DDE3" offset=".625"/><stop stop-color="#C6DCE2" offset=".629"/><stop stop-color="#C5DBE1" offset=".633"/><stop stop-color="#C5DAE1" offset=".637"/><stop stop-color="#C4D9E0" offset=".641"/><stop stop-color="#C3D8E0" offset=".645"/><stop stop-color="#C2D7DF" offset=".648"/><stop stop-color="#C1D7DE" offset=".652"/><stop stop-color="#C1D6DE" offset=".656"/><stop stop-color="#C0D5DD" offset=".66"/><stop stop-color="#BFD4DD" offset=".664"/><stop stop-color="#BED3DC" offset=".668"/><stop stop-color="#BDD2DC" offset=".672"/><stop stop-color="#BCD1DB" offset=".676"/><stop stop-color="#BCD0DA" offset=".68"/><stop stop-color="#BBD0DA" offset=".684"/><stop stop-color="#BACFD9" offset=".688"/><stop stop-color="#B9CED9" offset=".691"/><stop stop-color="#B8CDD8" offset=".695"/><stop stop-color="#B8CCD8" offset=".699"/><stop stop-color="#B7CBD7" offset=".703"/><stop stop-color="#B6CAD6" offset=".707"/><stop stop-color="#B5C9D6" offset=".711"/><stop stop-color="#B4C9D5" offset=".715"/><stop stop-color="#B3C8D5" offset=".719"/><stop stop-color="#B3C7D4" offset=".723"/><stop stop-color="#B2C6D3" offset=".727"/><stop stop-color="#B1C5D3" offset=".73"/><stop stop-color="#B0C4D2" offset=".734"/><stop stop-color="#AFC3D2" offset=".738"/><stop stop-color="#AEC2D1" offset=".742"/><stop stop-color="#AEC2D1" offset=".746"/><stop stop-color="#ADC1D0" offset=".75"/><stop stop-color="#ACC0CF" offset=".754"/><stop stop-color="#ABBFCF" offset=".758"/><stop stop-color="#AABECE" offset=".762"/><stop stop-color="#AABDCE" offset=".766"/><stop stop-color="#A9BCCD" offset=".77"/><stop stop-color="#A8BBCC" offset=".773"/><stop stop-color="#A7BBCC" offset=".777"/><stop stop-color="#A6BACB" offset=".781"/><stop stop-color="#A5B9CB" offset=".785"/><stop stop-color="#A5B8CA" offset=".789"/><stop stop-color="#A4B7CA" offset=".793"/><stop stop-color="#A3B6C9" offset=".797"/><stop stop-color="#A2B5C8" offset=".801"/><stop stop-color="#A1B4C8" offset=".805"/><stop stop-color="#A1B4C7" offset=".809"/><stop stop-color="#A0B3C7" offset=".813"/><stop stop-color="#9FB2C6" offset=".816"/><stop stop-color="#9EB1C6" offset=".82"/><stop stop-color="#9DB0C5" offset=".824"/><stop stop-color="#9CAFC4" offset=".828"/><stop stop-color="#9CAEC4" offset=".832"/><stop stop-color="#9BADC3" offset=".836"/><stop stop-color="#9AADC3" offset=".84"/><stop stop-color="#99ACC2" offset=".844"/><stop stop-color="#98ABC1" offset=".848"/><stop stop-color="#97AAC1" offset=".852"/><stop stop-color="#97A9C0" offset=".855"/><stop stop-color="#96A8C0" offset=".859"/><stop stop-color="#95A7BF" offset=".863"/><stop stop-color="#94A6BF" offset=".867"/><stop stop-color="#93A6BE" offset=".871"/><stop stop-color="#93A5BD" offset=".875"/><stop stop-color="#92A4BD" offset=".879"/><stop stop-color="#91A3BC" offset=".883"/><stop stop-color="#90A2BC" offset=".887"/><stop stop-color="#8FA1BB" offset=".891"/><stop stop-color="#8FA1BB" offset=".906"/><stop stop-color="#8FA1BB" offset=".938"/><stop stop-color="#8FA1BB" offset="1"/></linearGradient><linearGradient x1="22.5" gradientTransform="matrix(3.10311 0 0 3.09146 109.987 82.135)" xmlns:xlink="http://www.w3.org/1999/xlink" y1="16.86" x2="22.5" gradientUnits="userSpaceOnUse" y2="21.643" xlink:type="simple" xlink:actuate="onLoad" id="u" xlink:show="other"><stop stop-color="#FFF" offset="0"/><stop stop-color="#FFF" offset=".5"/><stop stop-color="#FFF" offset=".516"/><stop stop-color="#FEFEFF" offset=".523"/><stop stop-color="#FDFEFE" offset=".531"/><stop stop-color="#FDFEFE" offset=".539"/><stop stop-color="#FCFEFE" offset=".547"/><stop stop-color="#FCFDFD" offset=".555"/><stop stop-color="#FBFDFD" offset=".563"/><stop stop-color="#FBFDFD" offset=".57"/><stop stop-color="#FAFCFD" offset=".578"/><stop stop-color="#FAFCFC" offset=".586"/><stop stop-color="#F9FCFC" offset=".594"/><stop stop-color="#F9FBFC" offset=".602"/><stop stop-color="#F8FBFC" offset=".609"/><stop stop-color="#F7FBFB" offset=".617"/><stop stop-color="#F7FAFB" offset=".625"/><stop stop-color="#F6FAFB" offset=".633"/><stop stop-color="#F6FAFA" offset=".641"/><stop stop-color="#F5F9FA" offset=".648"/><stop stop-color="#F5F9FA" offset=".656"/><stop stop-color="#F4F9FA" offset=".664"/><stop stop-color="#F4F8F9" offset=".672"/><stop stop-color="#F3F8F9" offset=".68"/><stop stop-color="#F2F8F9" offset=".688"/><stop stop-color="#F2F8F9" offset=".695"/><stop stop-color="#F1F7F8" offset=".703"/><stop stop-color="#F1F7F8" offset=".711"/><stop stop-color="#F0F7F8" offset=".719"/><stop stop-color="#F0F6F7" offset=".727"/><stop stop-color="#EFF6F7" offset=".734"/><stop stop-color="#EFF6F7" offset=".742"/><stop stop-color="#EEF5F7" offset=".75"/><stop stop-color="#EDF5F6" offset=".758"/><stop stop-color="#EDF5F6" offset=".766"/><stop stop-color="#ECF4F6" offset=".773"/><stop stop-color="#ECF4F6" offset=".781"/><stop stop-color="#EBF4F5" offset=".789"/><stop stop-color="#EBF3F5" offset=".797"/><stop stop-color="#EAF3F5" offset=".805"/><stop stop-color="#EAF3F5" offset=".813"/><stop stop-color="#E9F2F4" offset=".82"/><stop stop-color="#E8F2F4" offset=".828"/><stop stop-color="#E8F2F4" offset=".836"/><stop stop-color="#E7F2F3" offset=".844"/><stop stop-color="#E7F1F3" offset=".852"/><stop stop-color="#E6F1F3" offset=".859"/><stop stop-color="#E6F1F3" offset=".867"/><stop stop-color="#E5F0F2" offset=".875"/><stop stop-color="#E5F0F2" offset=".883"/><stop stop-color="#E4F0F2" offset=".891"/><stop stop-color="#E3EFF2" offset=".898"/><stop stop-color="#E3EFF1" offset=".906"/><stop stop-color="#E2EFF1" offset=".914"/><stop stop-color="#E2EEF1" offset=".922"/><stop stop-color="#E1EEF0" offset=".93"/><stop stop-color="#E1EEF0" offset=".938"/><stop stop-color="#E0EDF0" offset=".945"/><stop stop-color="#E0EDF0" offset=".953"/><stop stop-color="#DFEDEF" offset=".961"/><stop stop-color="#DFECEF" offset=".969"/><stop stop-color="#DEECEF" offset=".977"/><stop stop-color="#DDECEF" offset=".984"/><stop stop-color="#DDECEE" offset=".992"/><stop stop-color="#DCEBEE" offset="1"/></linearGradient><linearGradient x1="18.04" gradientTransform="matrix(3.10311 0 0 3.09146 109.987 82.135)" xmlns:xlink="http://www.w3.org/1999/xlink" y1="19.72" x2="18.04" gradientUnits="userSpaceOnUse" y2="10.04" xlink:type="simple" xlink:actuate="onLoad" id="z" xlink:show="other"><stop stop-color="#FAFCFD" offset="0"/><stop stop-color="#FAFCFD" offset=".016"/><stop stop-color="#F9FCFC" offset=".031"/><stop stop-color="#F9FBFC" offset=".047"/><stop stop-color="#F8FBFC" offset=".063"/><stop stop-color="#F8FBFB" offset=".078"/><stop stop-color="#F7FBFB" offset=".094"/><stop stop-color="#F7FAFB" offset=".109"/><stop stop-color="#F6FAFB" offset=".125"/><stop stop-color="#F5FAFA" offset=".141"/><stop stop-color="#F5F9FA" offset=".156"/><stop stop-color="#F4F9FA" offset=".172"/><stop stop-color="#F4F9F9" offset=".188"/><stop stop-color="#F3F8F9" offset=".203"/><stop stop-color="#F3F8F9" offset=".219"/><stop stop-color="#F2F8F9" offset=".234"/><stop stop-color="#F1F7F8" offset=".25"/><stop stop-color="#F1F7F8" offset=".266"/><stop stop-color="#F0F7F8" offset=".281"/><stop stop-color="#F0F6F8" offset=".297"/><stop stop-color="#EFF6F7" offset=".313"/><stop stop-color="#EFF6F7" offset=".328"/><stop stop-color="#EEF5F7" offset=".344"/><stop stop-color="#EDF5F6" offset=".359"/><stop stop-color="#EDF5F6" offset=".375"/><stop stop-color="#ECF4F6" offset=".391"/><stop stop-color="#ECF4F6" offset=".406"/><stop stop-color="#EBF4F5" offset=".422"/><stop stop-color="#EBF3F5" offset=".438"/><stop stop-color="#EAF3F5" offset=".453"/><stop stop-color="#E9F3F4" offset=".469"/><stop stop-color="#E9F2F4" offset=".484"/><stop stop-color="#E8F2F4" offset=".5"/><stop stop-color="#E8F2F4" offset=".516"/><stop stop-color="#E7F1F3" offset=".531"/><stop stop-color="#E7F1F3" offset=".547"/><stop stop-color="#E6F1F3" offset=".563"/><stop stop-color="#E5F0F2" offset=".578"/><stop stop-color="#E5F0F2" offset=".594"/><stop stop-color="#E4F0F2" offset=".609"/><stop stop-color="#E4EFF2" offset=".625"/><stop stop-color="#E3EFF1" offset=".641"/><stop stop-color="#E3EFF1" offset=".656"/><stop stop-color="#E2EEF1" offset=".672"/><stop stop-color="#E1EEF1" offset=".688"/><stop stop-color="#E1EEF0" offset=".703"/><stop stop-color="#E0EEF0" offset=".719"/><stop stop-color="#E0EDF0" offset=".734"/><stop stop-color="#DFEDEF" offset=".75"/><stop stop-color="#DFEDEF" offset=".766"/><stop stop-color="#DEECEF" offset=".781"/><stop stop-color="#DDECEF" offset=".797"/><stop stop-color="#DDECEE" offset=".813"/><stop stop-color="#DCEBEE" offset=".828"/><stop stop-color="#DCEBEE" offset=".844"/><stop stop-color="#DBEBED" offset=".859"/><stop stop-color="#DBEAED" offset=".875"/><stop stop-color="#DAEAED" offset=".891"/><stop stop-color="#D9EAED" offset=".906"/><stop stop-color="#D9E9EC" offset=".922"/><stop stop-color="#D8E9EC" offset=".938"/><stop stop-color="#D8E9EC" offset=".953"/><stop stop-color="#D7E8EB" offset=".969"/><stop stop-color="#D7E8EB" offset=".984"/><stop stop-color="#D6E8EB" offset="1"/></linearGradient><linearGradient x1="-1065" gradientTransform="matrix(-3.10311 0 0 3.09146 -3111.042 82.135)" xmlns:xlink="http://www.w3.org/1999/xlink" y1="19.72" x2="-1065" gradientUnits="userSpaceOnUse" y2="10.04" xlink:type="simple" xlink:actuate="onLoad" id="E" xlink:show="other"><stop stop-color="#FAFCFD" offset="0"/><stop stop-color="#FAFCFD" offset=".016"/><stop stop-color="#F9FCFC" offset=".031"/><stop stop-color="#F9FBFC" offset=".047"/><stop stop-color="#F8FBFC" offset=".063"/><stop stop-color="#F8FBFB" offset=".078"/><stop stop-color="#F7FBFB" offset=".094"/><stop stop-color="#F7FAFB" offset=".109"/><stop stop-color="#F6FAFB" offset=".125"/><stop stop-color="#F5FAFA" offset=".141"/><stop stop-color="#F5F9FA" offset=".156"/><stop stop-color="#F4F9FA" offset=".172"/><stop stop-color="#F4F9F9" offset=".188"/><stop stop-color="#F3F8F9" offset=".203"/><stop stop-color="#F3F8F9" offset=".219"/><stop stop-color="#F2F8F9" offset=".234"/><stop stop-color="#F1F7F8" offset=".25"/><stop stop-color="#F1F7F8" offset=".266"/><stop stop-color="#F0F7F8" offset=".281"/><stop stop-color="#F0F6F8" offset=".297"/><stop stop-color="#EFF6F7" offset=".313"/><stop stop-color="#EFF6F7" offset=".328"/><stop stop-color="#EEF5F7" offset=".344"/><stop stop-color="#EDF5F6" offset=".359"/><stop stop-color="#EDF5F6" offset=".375"/><stop stop-color="#ECF4F6" offset=".391"/><stop stop-color="#ECF4F6" offset=".406"/><stop stop-color="#EBF4F5" offset=".422"/><stop stop-color="#EBF3F5" offset=".438"/><stop stop-color="#EAF3F5" offset=".453"/><stop stop-color="#E9F3F4" offset=".469"/><stop stop-color="#E9F2F4" offset=".484"/><stop stop-color="#E8F2F4" offset=".5"/><stop stop-color="#E8F2F4" offset=".516"/><stop stop-color="#E7F1F3" offset=".531"/><stop stop-color="#E7F1F3" offset=".547"/><stop stop-color="#E6F1F3" offset=".563"/><stop stop-color="#E5F0F2" offset=".578"/><stop stop-color="#E5F0F2" offset=".594"/><stop stop-color="#E4F0F2" offset=".609"/><stop stop-color="#E4EFF2" offset=".625"/><stop stop-color="#E3EFF1" offset=".641"/><stop stop-color="#E3EFF1" offset=".656"/><stop stop-color="#E2EEF1" offset=".672"/><stop stop-color="#E1EEF1" offset=".688"/><stop stop-color="#E1EEF0" offset=".703"/><stop stop-color="#E0EEF0" offset=".719"/><stop stop-color="#E0EDF0" offset=".734"/><stop stop-color="#DFEDEF" offset=".75"/><stop stop-color="#DFEDEF" offset=".766"/><stop stop-color="#DEECEF" offset=".781"/><stop stop-color="#DDECEF" offset=".797"/><stop stop-color="#DDECEE" offset=".813"/><stop stop-color="#DCEBEE" offset=".828"/><stop stop-color="#DCEBEE" offset=".844"/><stop stop-color="#DBEBED" offset=".859"/><stop stop-color="#DBEAED" offset=".875"/><stop stop-color="#DAEAED" offset=".891"/><stop stop-color="#D9EAED" offset=".906"/><stop stop-color="#D9E9EC" offset=".922"/><stop stop-color="#D8E9EC" offset=".938"/><stop stop-color="#D8E9EC" offset=".953"/><stop stop-color="#D7E8EB" offset=".969"/><stop stop-color="#D7E8EB" offset=".984"/><stop stop-color="#D6E8EB" offset="1"/></linearGradient><linearGradient x1="19.38" gradientTransform="matrix(3.10311 0 0 3.09146 109.987 82.135)" xmlns:xlink="http://www.w3.org/1999/xlink" y1="24.62" x2="19.38" gradientUnits="userSpaceOnUse" y2="26.447" xlink:type="simple" xlink:actuate="onLoad" id="H" xlink:show="other"><stop stop-color="#F1F7F8" offset="0"/><stop stop-color="#F1F7F8" offset=".031"/><stop stop-color="#F0F7F8" offset=".063"/><stop stop-color="#EFF6F7" offset=".094"/><stop stop-color="#EFF6F7" offset=".125"/><stop stop-color="#EEF5F7" offset=".156"/><stop stop-color="#EDF5F6" offset=".188"/><stop stop-color="#ECF4F6" offset=".219"/><stop stop-color="#EBF4F5" offset=".25"/><stop stop-color="#EBF3F5" offset=".281"/><stop stop-color="#EAF3F5" offset=".313"/><stop stop-color="#E9F2F4" offset=".344"/><stop stop-color="#E8F2F4" offset=".375"/><stop stop-color="#E7F1F3" offset=".406"/><stop stop-color="#E6F1F3" offset=".438"/><stop stop-color="#E6F1F3" offset=".469"/><stop stop-color="#E5F0F2" offset=".5"/><stop stop-color="#E4F0F2" offset=".531"/><stop stop-color="#E3EFF1" offset=".563"/><stop stop-color="#E2EFF1" offset=".594"/><stop stop-color="#E2EEF1" offset=".625"/><stop stop-color="#E1EEF0" offset=".656"/><stop stop-color="#E0EDF0" offset=".688"/><stop stop-color="#DFEDEF" offset=".719"/><stop stop-color="#DEECEF" offset=".75"/><stop stop-color="#DEECEF" offset=".781"/><stop stop-color="#DDEBEE" offset=".813"/><stop stop-color="#DCEBEE" offset=".844"/><stop stop-color="#DBEBED" offset=".875"/><stop stop-color="#DAEAED" offset=".906"/><stop stop-color="#DAEAED" offset=".938"/><stop stop-color="#D9E9EC" offset=".969"/><stop stop-color="#D8E9EC" offset="1"/></linearGradient><linearGradient x1="25.62" gradientTransform="matrix(3.10311 0 0 3.09146 109.987 82.135)" xmlns:xlink="http://www.w3.org/1999/xlink" y1="24.62" x2="25.62" gradientUnits="userSpaceOnUse" y2="26.447" xlink:type="simple" xlink:actuate="onLoad" id="K" xlink:show="other"><stop stop-color="#F1F7F8" offset="0"/><stop stop-color="#F1F7F8" offset=".031"/><stop stop-color="#F0F7F8" offset=".063"/><stop stop-color="#EFF6F7" offset=".094"/><stop stop-color="#EFF6F7" offset=".125"/><stop stop-color="#EEF5F7" offset=".156"/><stop stop-color="#EDF5F6" offset=".188"/><stop stop-color="#ECF4F6" offset=".219"/><stop stop-color="#EBF4F5" offset=".25"/><stop stop-color="#EBF3F5" offset=".281"/><stop stop-color="#EAF3F5" offset=".313"/><stop stop-color="#E9F2F4" offset=".344"/><stop stop-color="#E8F2F4" offset=".375"/><stop stop-color="#E7F1F3" offset=".406"/><stop stop-color="#E6F1F3" offset=".438"/><stop stop-color="#E6F1F3" offset=".469"/><stop stop-color="#E5F0F2" offset=".5"/><stop stop-color="#E4F0F2" offset=".531"/><stop stop-color="#E3EFF1" offset=".563"/><stop stop-color="#E2EFF1" offset=".594"/><stop stop-color="#E2EEF1" offset=".625"/><stop stop-color="#E1EEF0" offset=".656"/><stop stop-color="#E0EDF0" offset=".688"/><stop stop-color="#DFEDEF" offset=".719"/><stop stop-color="#DEECEF" offset=".75"/><stop stop-color="#DEECEF" offset=".781"/><stop stop-color="#DDEBEE" offset=".813"/><stop stop-color="#DCEBEE" offset=".844"/><stop stop-color="#DBEBED" offset=".875"/><stop stop-color="#DAEAED" offset=".906"/><stop stop-color="#DAEAED" offset=".938"/><stop stop-color="#D9E9EC" offset=".969"/><stop stop-color="#D8E9EC" offset="1"/></linearGradient><g id="R"><path d="M 26.226562 -36.679688 L -0.304688 -36.679688 L -0.304688 -29.527344 L 8.988281 -29.527344 L 8.988281 0 L 16.996094 0 L 16.996094 -29.527344 L 26.226562 -29.527344 Z M 26.226562 -36.679688"/></g><g id="S"><path d="M 30.871094 -6.359375 C 29.832031 -6.359375 28.730469 -6.722656 28.730469 -8.742188 L 28.730469 -24.453125 L 20.96875 -24.453125 L 20.96875 -22.3125 C 19.132812 -23.964844 16.8125 -24.941406 14 -24.941406 C 7.214844 -24.941406 1.894531 -19.316406 1.894531 -12.226562 C 1.894531 -5.136719 7.214844 0.488281 14 0.488281 C 17.542969 0.488281 20.417969 -1.101562 22.375 -3.667969 C 23.902344 -1.160156 26.59375 0.488281 29.894531 0.488281 C 30.6875 0.488281 31.421875 0.246094 31.972656 0 L 31.972656 -6.359375 Z M 15.527344 -6.417969 C 12.289062 -6.417969 9.71875 -8.988281 9.71875 -12.226562 C 9.71875 -15.464844 12.289062 -18.035156 15.527344 -18.035156 C 18.707031 -18.035156 21.335938 -15.464844 21.335938 -12.226562 C 21.335938 -8.988281 18.707031 -6.417969 15.527344 -6.417969 Z M 15.527344 -6.417969"/></g><g id="T"><path d="M 32.765625 -24.941406 C 29.28125 -24.941406 26.59375 -23.351562 25.0625 -20.664062 C 23.65625 -23.230469 21.210938 -24.941406 18.09375 -24.941406 C 15.28125 -24.941406 13.019531 -23.597656 11.429688 -21.457031 L 11.429688 -24.453125 L 3.605469 -24.453125 L 3.605469 0 L 11.429688 0 L 11.429688 -14.183594 C 11.429688 -15.957031 12.53125 -18.035156 14.917969 -18.035156 C 17.054688 -18.035156 18.460938 -16.320312 18.460938 -14.183594 L 18.460938 0 L 26.285156 0 L 26.285156 -14.183594 C 26.285156 -15.957031 27.386719 -18.035156 29.769531 -18.035156 C 31.910156 -18.035156 33.378906 -16.320312 33.378906 -14.183594 L 33.378906 0 L 41.140625 0 L 41.140625 -15.464844 C 41.140625 -21.152344 38.144531 -24.941406 32.765625 -24.941406 Z M 32.765625 -24.941406"/></g><g id="U"><path d="M 18.402344 -24.941406 C 15.589844 -24.941406 13.265625 -23.964844 11.429688 -22.3125 L 11.429688 -24.390625 L 3.605469 -24.453125 L 3.605469 14.671875 L 11.429688 14.734375 L 11.429688 -2.140625 C 13.265625 -0.488281 15.589844 0.488281 18.402344 0.488281 C 25.125 0.488281 30.445312 -5.136719 30.445312 -12.226562 C 30.445312 -19.316406 25.125 -24.941406 18.402344 -24.941406 Z M 16.871094 -6.417969 C 13.632812 -6.417969 11.066406 -8.988281 11.066406 -12.226562 C 11.066406 -15.464844 13.632812 -18.035156 16.871094 -18.035156 C 20.113281 -18.035156 22.679688 -15.464844 22.679688 -12.226562 C 22.679688 -8.988281 20.113281 -6.417969 16.871094 -6.417969 Z M 16.871094 -6.417969"/></g><g id="V"><path d="M 25.675781 -18.585938 C 28.425781 -20.050781 30.199219 -22.617188 30.199219 -26.46875 C 30.199219 -32.949219 25.308594 -36.679688 19.132812 -36.679688 L 3.605469 -36.679688 L 3.605469 0 L 20.539062 0 C 26.652344 0 31.421875 -3.546875 31.421875 -10.027344 C 31.421875 -14.488281 29.097656 -17.238281 25.675781 -18.585938 Z M 22.128906 -25.613281 C 22.128906 -23.472656 20.355469 -21.640625 18.15625 -21.640625 L 11.675781 -21.640625 L 11.675781 -29.527344 L 18.15625 -29.527344 C 20.355469 -29.527344 22.128906 -27.816406 22.128906 -25.613281 Z M 19.378906 -7.152344 L 11.675781 -7.152344 L 11.675781 -15.039062 L 19.378906 -15.039062 C 21.640625 -15.039062 23.351562 -13.203125 23.351562 -11.066406 C 23.351562 -8.863281 21.640625 -7.152344 19.378906 -7.152344 Z M 19.378906 -7.152344"/></g><g id="W"><path d="M 3.605469 0 L 11.429688 0 L 11.429688 -41.875 L 3.605469 -41.875 Z M 3.605469 0"/></g><g id="X"><path d="M 7.640625 -28.546875 C 9.964844 -28.546875 11.921875 -30.503906 11.921875 -32.828125 C 11.921875 -35.210938 9.964844 -37.105469 7.640625 -37.105469 C 5.320312 -37.105469 3.363281 -35.210938 3.363281 -32.828125 C 3.363281 -30.503906 5.320312 -28.546875 7.640625 -28.546875 Z M 1.957031 14.671875 C 7.089844 14.671875 11.492188 10.636719 11.492188 5.441406 L 11.492188 -24.453125 L 3.730469 -24.453125 L 3.730469 4.523438 C 3.730469 6.542969 2.566406 7.824219 0.976562 7.824219 L -2.015625 7.824219 L -2.015625 13.875 C -1.34375 14.304688 0.304688 14.671875 1.957031 14.671875 Z M 1.957031 14.671875"/></g><g id="Y"><path d="M 18.277344 -24.941406 C 15.40625 -24.941406 13.019531 -23.472656 11.429688 -21.089844 L 11.429688 -24.453125 L 3.605469 -24.453125 L 3.605469 0 L 11.429688 0 L 11.429688 -11.675781 C 11.429688 -15.710938 14.183594 -18.035156 18.035156 -18.035156 C 18.949219 -18.035156 19.746094 -17.910156 20.296875 -17.789062 L 20.296875 -24.695312 C 19.746094 -24.878906 19.011719 -24.941406 18.277344 -24.941406 Z M 18.277344 -24.941406"/></g></defs><g clip-path="url(#a)"><g clip-path="url(#b)"><path fill="url(#c)" d="M 238.890625 203.472656 L 238.890625 219.605469 L 220.675781 219.605469 L 220.675781 203.472656 Z M 238.890625 203.472656"/></g></g><g clip-path="url(#d)"><g clip-path="url(#e)"><path fill="url(#f)" d="M 249.625 158 L 249.625 211.511719 L 179.804688 211.511719 L 179.804688 158 Z M 249.625 158"/></g></g><g clip-path="url(#g)"><g clip-path="url(#h)"><path fill="url(#i)" d="M 137.890625 171.785156 L 137.890625 199.847656 L 169.535156 199.847656 L 169.535156 171.785156 Z M 137.890625 171.785156"/></g></g><g clip-path="url(#j)"><g clip-path="url(#k)"><path fill="url(#l)" d="M 119.296875 93.046875 L 119.296875 185.792969 L 240.316406 185.792969 L 240.316406 93.046875 Z M 119.296875 93.046875"/></g></g><g clip-path="url(#m)"><g clip-path="url(#n)"><path fill="url(#o)" d="M 179.804688 157.96875 L 179.804688 185.792969 L 240.316406 185.792969 L 240.316406 157.96875 Z M 179.804688 157.96875"/></g></g><g clip-path="url(#p)"><g clip-path="url(#q)"><path fill="url(#r)" d="M 152.15625 111.597656 L 152.15625 167.503906 L 207.394531 167.503906 L 207.394531 111.597656 Z M 152.15625 111.597656"/></g></g><g clip-path="url(#s)"><g clip-path="url(#t)"><path fill="url(#u)" d="M 164.074219 134.257812 L 164.074219 149.042969 L 195.539062 149.042969 L 195.539062 134.257812 Z M 164.074219 134.257812"/></g></g><g clip-path="url(#v)"><g clip-path="url(#w)"><path fill="#FFF" d="M 152.125 111.597656 L 152.125 143.097656 L 179.835938 143.097656 L 179.835938 111.597656 Z M 152.125 111.597656"/></g></g><g clip-path="url(#x)"><g clip-path="url(#y)"><path fill="url(#z)" d="M 152.265625 113.171875 L 152.265625 143.097656 L 179.960938 143.097656 L 179.960938 113.171875 Z M 152.265625 113.171875"/></g></g><g clip-path="url(#A)"><g clip-path="url(#B)"><path fill="#FFF" d="M 207.457031 111.566406 L 207.457031 143.097656 L 179.746094 143.097656 L 179.746094 111.566406 Z M 207.457031 111.566406"/></g></g><g clip-path="url(#C)"><g clip-path="url(#D)"><path fill="url(#E)" d="M 207.347656 113.171875 L 207.347656 143.097656 L 179.652344 143.097656 L 179.652344 113.171875 Z M 207.347656 113.171875"/></g></g><g clip-path="url(#F)"><g clip-path="url(#G)"><path fill="url(#H)" d="M 164.136719 158.246094 L 164.136719 163.894531 L 176.082031 163.894531 L 176.082031 158.246094 Z M 164.136719 158.246094"/></g></g><g clip-path="url(#I)"><g clip-path="url(#J)"><path fill="url(#K)" d="M 183.46875 158.246094 L 183.46875 163.894531 L 195.476562 163.894531 L 195.476562 158.246094 Z M 183.46875 158.246094"/></g></g><path fill="#E23E57" d="M 207.316406 106.71875 C 207.316406 119.816406 199.742188 133.972656 184.902344 133.972656 C 170.199219 133.972656 162.40625 119.816406 162.40625 106.71875 C 162.40625 93.621094 171.777344 83.003906 184.902344 83.003906 C 198.03125 83.003906 207.316406 93.621094 207.316406 106.71875 Z M 207.316406 106.71875"/><path fill="#522546" d="M 184.902344 134.894531 C 169.691406 134.894531 161.480469 120.378906 161.480469 106.71875 C 161.480469 100.066406 163.816406 93.890625 168.054688 89.324219 C 172.386719 84.652344 178.371094 82.082031 184.902344 82.082031 C 198.207031 82.082031 208.242188 92.671875 208.242188 106.71875 C 208.242188 113.738281 206.121094 120.691406 202.421875 125.796875 C 198.113281 131.75 192.054688 134.894531 184.902344 134.894531 Z M 184.902344 83.925781 C 172.605469 83.925781 163.328125 93.722656 163.328125 106.71875 C 163.328125 119.484375 170.890625 133.050781 184.902344 133.050781 C 199.011719 133.050781 206.390625 119.804688 206.390625 106.71875 C 206.394531 93.722656 197.15625 83.925781 184.902344 83.925781 Z M 184.902344 83.925781"/><path fill="#E23E57" d="M 206.921875 102.121094 C 192.992188 107.089844 178.894531 93.71875 178.894531 93.71875 C 178.480469 104.195312 166.691406 104.914062 166.691406 104.914062 L 166.898438 112.082031 L 163.683594 115.921875 C 163.683594 115.921875 156.507812 94.957031 175.578125 84.992188 C 175.578125 84.992188 191.839844 77.199219 203.019531 92.433594 C 205.699219 96.085938 206.921875 102.121094 206.921875 102.121094 Z M 206.921875 102.121094"/><path fill="#522546" d="M 163.683594 116.84375 C 163.628906 116.84375 163.570312 116.839844 163.515625 116.828125 C 163.1875 116.765625 162.917969 116.535156 162.808594 116.21875 C 162.734375 116 160.957031 110.71875 161.558594 104.109375 C 162.117188 97.964844 164.929688 89.515625 175.148438 84.175781 C 175.355469 84.074219 179.589844 82.078125 185.292969 82.078125 C 190.433594 82.078125 197.8125 83.78125 203.765625 91.890625 C 206.53125 95.660156 207.777344 101.683594 207.828125 101.9375 C 207.921875 102.386719 207.667969 102.835938 207.234375 102.988281 C 205.074219 103.761719 202.78125 104.152344 200.417969 104.152344 C 191.0625 104.152344 182.800781 98.195312 179.628906 95.578125 C 178.257812 103.449219 170.328125 105.316406 167.640625 105.726562 L 167.824219 112.054688 C 167.832031 112.277344 167.753906 112.5 167.609375 112.671875 L 164.394531 116.511719 C 164.214844 116.726562 163.953125 116.84375 163.683594 116.84375 Z M 185.292969 83.921875 C 180.007812 83.921875 176.015625 85.804688 175.976562 85.824219 C 168.414062 89.777344 164.175781 95.96875 163.40625 104.214844 C 163.023438 108.328125 163.640625 111.964844 164.109375 113.972656 L 165.964844 111.757812 L 165.765625 104.941406 C 165.75 104.441406 166.136719 104.023438 166.632812 103.992188 C 167.082031 103.964844 177.597656 103.1875 177.972656 93.679688 C 177.988281 93.320312 178.210938 93 178.546875 92.863281 C 178.882812 92.726562 179.269531 92.800781 179.53125 93.050781 C 179.628906 93.140625 189.433594 102.304688 200.417969 102.304688 C 202.285156 102.304688 204.105469 102.039062 205.832031 101.511719 C 205.410156 99.789062 204.242188 95.660156 202.273438 92.980469 C 197.863281 86.96875 192.148438 83.921875 185.292969 83.921875 Z M 185.292969 83.921875"/><path fill="#E23E57" d="M 154.917969 124.316406 L 154.917969 108.488281 C 154.917969 108.488281 177.132812 111.59375 184.460938 127.863281 L 184.460938 130.535156 L 154.917969 130.535156 Z M 154.917969 124.316406"/><path fill="#522546" d="M 184.460938 131.457031 L 154.917969 131.457031 C 154.410156 131.457031 153.996094 131.046875 153.996094 130.535156 L 153.996094 108.488281 C 153.996094 108.21875 154.109375 107.964844 154.3125 107.789062 C 154.515625 107.617188 154.78125 107.535156 155.046875 107.574219 C 155.976562 107.703125 177.855469 110.941406 185.304688 127.488281 C 185.359375 127.605469 185.386719 127.734375 185.386719 127.863281 L 185.386719 130.535156 C 185.386719 131.046875 184.972656 131.457031 184.460938 131.457031 Z M 155.84375 129.613281 L 183.539062 129.613281 L 183.539062 128.0625 C 177.328125 114.574219 160.257812 110.441406 155.84375 109.585938 Z M 155.84375 129.613281"/><path fill="#E23E57" d="M 214.003906 124.316406 L 214.003906 108.488281 C 214.003906 108.488281 191.789062 111.59375 184.460938 127.863281 L 184.460938 130.535156 L 214.003906 130.535156 Z M 214.003906 124.316406"/><path fill="#522546" d="M 214.003906 131.457031 L 184.460938 131.457031 C 183.953125 131.457031 183.539062 131.046875 183.539062 130.535156 L 183.539062 127.863281 C 183.539062 127.734375 183.566406 127.605469 183.621094 127.488281 C 191.070312 110.941406 212.949219 107.703125 213.878906 107.574219 C 214.144531 107.535156 214.410156 107.617188 214.613281 107.792969 C 214.8125 107.964844 214.929688 108.21875 214.929688 108.488281 L 214.929688 130.535156 C 214.929688 131.046875 214.515625 131.457031 214.003906 131.457031 Z M 185.386719 129.613281 L 213.082031 129.613281 L 213.082031 109.585938 C 208.664062 110.445312 191.589844 114.589844 185.386719 128.0625 Z M 185.386719 129.613281"/><path fill="#E23E57" d="M 151.910156 127.582031 L 151.910156 111.753906 C 151.910156 111.753906 176.339844 114.285156 184.394531 130.558594 L 184.394531 133.804688 L 151.910156 133.804688 Z M 151.910156 127.582031"/><path fill="#522546" d="M 184.394531 134.726562 L 151.910156 134.726562 C 151.402344 134.726562 150.988281 134.3125 150.988281 133.804688 L 150.988281 111.753906 C 150.988281 111.492188 151.097656 111.242188 151.292969 111.070312 C 151.488281 110.894531 151.746094 110.8125 152.007812 110.835938 C 153.023438 110.941406 177.035156 113.609375 185.222656 130.148438 C 185.285156 130.277344 185.320312 130.414062 185.320312 130.558594 L 185.320312 133.804688 C 185.320312 134.3125 184.90625 134.726562 184.394531 134.726562 Z M 152.835938 132.878906 L 183.472656 132.878906 L 183.472656 130.773438 C 176.574219 117.171875 157.46875 113.507812 152.835938 112.808594 Z M 152.835938 132.878906"/><path fill="#E23E57" d="M 216.878906 127.582031 L 216.878906 111.753906 C 216.878906 111.753906 192.453125 114.285156 184.394531 130.558594 L 184.394531 133.804688 L 216.878906 133.804688 Z M 216.878906 127.582031"/><path fill="#522546" d="M 216.878906 134.726562 L 184.394531 134.726562 C 183.882812 134.726562 183.472656 134.3125 183.472656 133.804688 L 183.472656 130.558594 C 183.472656 130.414062 183.503906 130.277344 183.566406 130.148438 C 191.753906 113.609375 215.765625 110.941406 216.785156 110.835938 C 217.042969 110.808594 217.304688 110.894531 217.496094 111.070312 C 217.691406 111.246094 217.804688 111.492188 217.804688 111.753906 L 217.804688 133.804688 C 217.804688 134.3125 217.390625 134.726562 216.878906 134.726562 Z M 185.320312 132.878906 L 215.953125 132.878906 L 215.953125 112.808594 C 211.320312 113.507812 192.214844 117.171875 185.320312 130.773438 Z M 185.320312 132.878906"/><path fill="#E23E57" d="M 180.09375 127.863281 L 188.699219 127.863281 L 188.699219 175.265625 L 180.09375 175.265625 Z M 180.09375 127.863281"/><g clip-path="url(#L)"><path fill="#522546" d="M 188.699219 176.1875 L 180.09375 176.1875 C 179.582031 176.1875 179.167969 175.773438 179.167969 175.265625 L 179.167969 127.863281 C 179.167969 127.355469 179.582031 126.941406 180.09375 126.941406 L 188.699219 126.941406 C 189.210938 126.941406 189.621094 127.355469 189.621094 127.863281 L 189.621094 175.265625 C 189.621094 175.773438 189.210938 176.1875 188.699219 176.1875 Z M 181.015625 174.34375 L 187.773438 174.34375 L 187.773438 128.785156 L 181.015625 128.785156 Z M 181.015625 174.34375"/></g><path fill="#E23E57" d="M 147.59375 116.488281 L 180.09375 127.863281 L 180.09375 175.265625 L 147.59375 162.210938 Z M 147.59375 116.488281"/><g clip-path="url(#M)"><path fill="#522546" d="M 180.09375 176.1875 C 179.976562 176.1875 179.859375 176.164062 179.746094 176.121094 L 147.25 163.066406 C 146.898438 162.925781 146.671875 162.589844 146.671875 162.210938 L 146.671875 116.488281 C 146.671875 116.1875 146.816406 115.90625 147.058594 115.734375 C 147.304688 115.5625 147.617188 115.519531 147.898438 115.617188 L 180.398438 126.996094 C 180.769531 127.125 181.015625 127.472656 181.015625 127.863281 L 181.015625 175.265625 C 181.015625 175.570312 180.863281 175.855469 180.609375 176.027344 C 180.453125 176.132812 180.273438 176.1875 180.09375 176.1875 Z M 148.519531 161.589844 L 179.167969 173.898438 L 179.167969 128.519531 L 148.519531 117.785156 Z M 148.519531 161.589844"/></g><path fill="#E23E57" d="M 221.195312 121.863281 L 221.195312 116.488281 L 188.699219 127.863281 L 188.699219 175.265625 L 221.195312 162.210938 L 221.195312 127.863281"/><g clip-path="url(#N)"><path fill="#522546" d="M 188.699219 176.1875 C 188.515625 176.1875 188.335938 176.132812 188.179688 176.027344 C 187.925781 175.855469 187.773438 175.570312 187.773438 175.265625 L 187.773438 127.863281 C 187.773438 127.472656 188.023438 127.125 188.390625 126.996094 L 220.890625 115.617188 C 221.171875 115.519531 221.484375 115.5625 221.730469 115.734375 C 221.976562 115.90625 222.121094 116.1875 222.121094 116.488281 L 222.121094 121.863281 C 222.121094 122.371094 221.707031 122.785156 221.195312 122.785156 C 220.683594 122.785156 220.273438 122.371094 220.273438 121.863281 L 220.273438 117.785156 L 189.621094 128.519531 L 189.621094 173.898438 L 220.273438 161.589844 L 220.273438 127.863281 C 220.273438 127.355469 220.683594 126.941406 221.195312 126.941406 C 221.707031 126.941406 222.121094 127.355469 222.121094 127.863281 L 222.121094 162.210938 C 222.121094 162.589844 221.890625 162.925781 221.542969 163.066406 L 189.042969 176.121094 C 188.933594 176.164062 188.816406 176.1875 188.699219 176.1875 Z M 188.699219 176.1875"/></g><path fill="#E23E57" d="M 180.09375 127.863281 L 188.699219 127.863281 L 188.699219 175.265625 L 180.09375 175.265625 Z M 180.09375 127.863281"/><g clip-path="url(#O)"><path fill="#522546" d="M 188.699219 176.1875 L 180.09375 176.1875 C 179.582031 176.1875 179.167969 175.773438 179.167969 175.265625 L 179.167969 127.863281 C 179.167969 127.355469 179.582031 126.941406 180.09375 126.941406 L 188.699219 126.941406 C 189.210938 126.941406 189.621094 127.355469 189.621094 127.863281 L 189.621094 175.265625 C 189.621094 175.773438 189.210938 176.1875 188.699219 176.1875 Z M 181.015625 174.34375 L 187.773438 174.34375 L 187.773438 128.785156 L 181.015625 128.785156 Z M 181.015625 174.34375"/></g><path fill="#E23E57" d="M 222.855469 138.804688 C 222.855469 139.753906 222.082031 140.527344 221.125 140.527344 L 213.386719 140.527344 C 212.433594 140.527344 211.660156 139.753906 211.660156 138.804688 C 211.660156 137.851562 212.433594 137.078125 213.386719 137.078125 L 221.125 137.078125 C 222.082031 137.078125 222.855469 137.851562 222.855469 138.804688 Z M 222.855469 138.804688"/><path fill="#522546" d="M 221.125 141.449219 L 213.386719 141.449219 C 211.925781 141.449219 210.738281 140.261719 210.738281 138.804688 C 210.738281 137.34375 211.925781 136.15625 213.386719 136.15625 L 221.125 136.15625 C 222.589844 136.15625 223.777344 137.34375 223.777344 138.804688 C 223.777344 140.261719 222.589844 141.449219 221.125 141.449219 Z M 213.386719 138 C 212.945312 138 212.585938 138.359375 212.585938 138.804688 C 212.585938 139.246094 212.945312 139.605469 213.386719 139.605469 L 221.125 139.605469 C 221.570312 139.605469 221.929688 139.246094 221.929688 138.804688 C 221.929688 138.359375 221.570312 138 221.125 138 Z M 213.386719 138"/><path fill="#E23E57" d="M 223.519531 142.25 C 223.519531 143.203125 222.746094 143.972656 221.792969 143.972656 L 214.054688 143.972656 C 213.097656 143.972656 212.328125 143.203125 212.328125 142.25 C 212.328125 141.296875 213.101562 140.527344 214.054688 140.527344 L 221.792969 140.527344 C 222.746094 140.527344 223.519531 141.296875 223.519531 142.25 Z M 223.519531 142.25"/><g clip-path="url(#P)"><path fill="#522546" d="M 221.792969 144.894531 L 214.054688 144.894531 C 212.589844 144.894531 211.402344 143.707031 211.402344 142.25 C 211.402344 140.789062 212.589844 139.605469 214.054688 139.605469 L 221.792969 139.605469 C 223.253906 139.605469 224.441406 140.789062 224.441406 142.25 C 224.441406 143.707031 223.253906 144.894531 221.792969 144.894531 Z M 214.054688 141.449219 C 213.609375 141.449219 213.25 141.808594 213.25 142.25 C 213.25 142.691406 213.609375 143.050781 214.054688 143.050781 L 221.792969 143.050781 C 222.234375 143.050781 222.59375 142.691406 222.59375 142.25 C 222.59375 141.808594 222.234375 141.449219 221.792969 141.449219 Z M 214.054688 141.449219"/></g><path fill="#E23E57" d="M 224 145.695312 C 224 146.648438 223.226562 147.417969 222.269531 147.417969 L 214.53125 147.417969 C 213.578125 147.417969 212.804688 146.648438 212.804688 145.695312 C 212.804688 144.746094 213.578125 143.972656 214.53125 143.972656 L 222.269531 143.972656 C 223.226562 143.972656 224 144.746094 224 145.695312 Z M 224 145.695312"/><g clip-path="url(#Q)"><path fill="#522546" d="M 222.269531 148.34375 L 214.53125 148.34375 C 213.070312 148.34375 211.882812 147.15625 211.882812 145.695312 C 211.882812 144.238281 213.070312 143.050781 214.53125 143.050781 L 222.269531 143.050781 C 223.734375 143.050781 224.921875 144.238281 224.921875 145.695312 C 224.921875 147.15625 223.734375 148.34375 222.269531 148.34375 Z M 214.53125 144.894531 C 214.089844 144.894531 213.730469 145.253906 213.730469 145.695312 C 213.730469 146.136719 214.089844 146.496094 214.53125 146.496094 L 222.269531 146.496094 C 222.714844 146.496094 223.074219 146.136719 223.074219 145.695312 C 223.074219 145.253906 222.714844 144.894531 222.269531 144.894531 Z M 214.53125 144.894531"/></g><path fill="#E23E57" d="M 146.113281 138.804688 C 146.113281 139.753906 146.886719 140.527344 147.839844 140.527344 L 155.578125 140.527344 C 156.53125 140.527344 157.304688 139.753906 157.304688 138.804688 C 157.304688 137.851562 156.53125 137.078125 155.578125 137.078125 L 147.839844 137.078125 C 146.886719 137.078125 146.113281 137.851562 146.113281 138.804688 Z M 146.113281 138.804688"/><path fill="#522546" d="M 155.578125 141.449219 L 147.839844 141.449219 C 146.378906 141.449219 145.1875 140.261719 145.1875 138.804688 C 145.1875 137.34375 146.378906 136.15625 147.839844 136.15625 L 155.578125 136.15625 C 157.039062 136.15625 158.230469 137.34375 158.230469 138.804688 C 158.230469 140.261719 157.039062 141.449219 155.578125 141.449219 Z M 147.839844 138 C 147.398438 138 147.035156 138.359375 147.035156 138.804688 C 147.035156 139.246094 147.398438 139.605469 147.839844 139.605469 L 155.578125 139.605469 C 156.019531 139.605469 156.382812 139.246094 156.382812 138.804688 C 156.382812 138.359375 156.019531 138 155.578125 138 Z M 147.839844 138"/><path fill="#E23E57" d="M 145.449219 142.25 C 145.449219 143.203125 146.222656 143.972656 147.175781 143.972656 L 154.914062 143.972656 C 155.867188 143.972656 156.640625 143.203125 156.640625 142.25 C 156.640625 141.296875 155.867188 140.527344 154.914062 140.527344 L 147.175781 140.527344 C 146.222656 140.527344 145.449219 141.296875 145.449219 142.25 Z M 145.449219 142.25"/><path fill="#522546" d="M 154.914062 144.894531 L 147.175781 144.894531 C 145.714844 144.894531 144.523438 143.707031 144.523438 142.25 C 144.523438 140.789062 145.714844 139.605469 147.175781 139.605469 L 154.914062 139.605469 C 156.375 139.605469 157.566406 140.789062 157.566406 142.25 C 157.566406 143.707031 156.375 144.894531 154.914062 144.894531 Z M 147.175781 141.449219 C 146.730469 141.449219 146.371094 141.808594 146.371094 142.25 C 146.371094 142.691406 146.734375 143.050781 147.175781 143.050781 L 154.914062 143.050781 C 155.355469 143.050781 155.714844 142.691406 155.714844 142.25 C 155.714844 141.808594 155.355469 141.449219 154.914062 141.449219 Z M 147.175781 141.449219"/><path fill="#E23E57" d="M 144.96875 145.695312 C 144.96875 146.648438 145.742188 147.417969 146.695312 147.417969 L 154.433594 147.417969 C 155.386719 147.417969 156.160156 146.648438 156.160156 145.695312 C 156.160156 144.746094 155.386719 143.972656 154.433594 143.972656 L 146.695312 143.972656 C 145.742188 143.972656 144.96875 144.746094 144.96875 145.695312 Z M 144.96875 145.695312"/><path fill="#522546" d="M 154.433594 148.34375 L 146.695312 148.34375 C 145.234375 148.34375 144.042969 147.15625 144.042969 145.695312 C 144.042969 144.238281 145.234375 143.050781 146.695312 143.050781 L 154.433594 143.050781 C 155.894531 143.050781 157.085938 144.238281 157.085938 145.695312 C 157.085938 147.15625 155.894531 148.34375 154.433594 148.34375 Z M 146.695312 144.894531 C 146.253906 144.894531 145.894531 145.253906 145.894531 145.695312 C 145.894531 146.136719 146.253906 146.496094 146.695312 146.496094 L 154.433594 146.496094 C 154.878906 146.496094 155.238281 146.136719 155.238281 145.695312 C 155.238281 145.253906 154.875 144.894531 154.433594 144.894531 Z M 146.695312 144.894531"/><g fill="#E23E57"><use x="21.362" y="282.461" xmlns:xlink="http://www.w3.org/1999/xlink" xlink:href="#R" xlink:type="simple" xlink:actuate="onLoad" xlink:show="embed"/></g><g fill="#E23E57"><use x="47.525" y="282.461" xmlns:xlink="http://www.w3.org/1999/xlink" xlink:href="#S" xlink:type="simple" xlink:actuate="onLoad" xlink:show="embed"/></g><g fill="#E23E57"><use x="80.656" y="282.461" xmlns:xlink="http://www.w3.org/1999/xlink" xlink:href="#T" xlink:type="simple" xlink:actuate="onLoad" xlink:show="embed"/></g><g fill="#E23E57"><use x="125.158" y="282.461" xmlns:xlink="http://www.w3.org/1999/xlink" xlink:href="#U" xlink:type="simple" xlink:actuate="onLoad" xlink:show="embed"/></g><g fill="#E23E57"><use x="157.739" y="282.461" xmlns:xlink="http://www.w3.org/1999/xlink" xlink:href="#S" xlink:type="simple" xlink:actuate="onLoad" xlink:show="embed"/></g><g fill="#88304E"><use x="193.662" y="282.461" xmlns:xlink="http://www.w3.org/1999/xlink" xlink:href="#V" xlink:type="simple" xlink:actuate="onLoad" xlink:show="embed"/></g><g fill="#88304E"><use x="227.099" y="282.461" xmlns:xlink="http://www.w3.org/1999/xlink" xlink:href="#W" xlink:type="simple" xlink:actuate="onLoad" xlink:show="embed"/></g><g fill="#88304E"><use x="242.381" y="282.461" xmlns:xlink="http://www.w3.org/1999/xlink" xlink:href="#S" xlink:type="simple" xlink:actuate="onLoad" xlink:show="embed"/></g><g fill="#88304E"><use x="275.512" y="282.461" xmlns:xlink="http://www.w3.org/1999/xlink" xlink:href="#X" xlink:type="simple" xlink:actuate="onLoad" xlink:show="embed"/></g><g fill="#88304E"><use x="291.039" y="282.461" xmlns:xlink="http://www.w3.org/1999/xlink" xlink:href="#S" xlink:type="simple" xlink:actuate="onLoad" xlink:show="embed"/></g><g fill="#88304E"><use x="324.17" y="282.461" xmlns:xlink="http://www.w3.org/1999/xlink" xlink:href="#Y" xlink:type="simple" xlink:actuate="onLoad" xlink:show="embed"/></g></svg>